<?xml version="1.0" encoding="UTF-8" standalone="no"?>
<!-- Created with Inkscape (http://www.inkscape.org/) -->

<svg
   version="1.1"
   id="svg1"
   width="240.95078"
   height="337.2778"
   viewBox="0 0 240.95081 337.27781"
   xmlns="http://www.w3.org/2000/svg"
   xmlns:svg="http://www.w3.org/2000/svg">
  <defs
     id="defs1" />
  <g
     id="g1"
     transform="translate(-10.066899,-18.647643)">
    <rect
       style="fill:#ffffff;fill-opacity:1;stroke:#000000;stroke-width:1.448;stroke-linecap:square;stroke-linejoin:bevel;stroke-dasharray:none;stroke-dashoffset:0;stroke-opacity:1"
       id="rect15"
       width="239.50278"
       height="335.8298"
       x="10.790899"
       y="19.371643"
       rx="17.33494"
       ry="14.657856" />
    <text
       xml:space="preserve"
       style="font-style:normal;font-variant:normal;font-weight:normal;font-stretch:normal;font-size:12px;font-family:FreeSans;-inkscape-font-specification:FreeSans;font-variant-ligatures:normal;font-variant-caps:normal;font-variant-numeric:normal;font-variant-east-asian:normal;white-space:pre;inline-size:136.983;display:inline;fill:#000000;fill-opacity:1;stroke:#000000;stroke-width:0.335667;stroke-linecap:square;stroke-linejoin:bevel;stroke-dasharray:none;stroke-dashoffset:0;stroke-opacity:1"
       x="32.194382"
       y="40.746014"
       id="text24"
       transform="matrix(3.5958254,0,0,3.5958254,-80.006633,-86.32924)"><tspan
         x="32.194382"
         y="40.746014"
         id="tspan1">Gunslinger</tspan></text>
    <g
       id="g4">
      <rect
         style="fill:none;fill-opacity:1;stroke:#97a300;stroke-width:3.32576;stroke-linecap:square;stroke-linejoin:bevel;stroke-dasharray:none;stroke-dashoffset:0;stroke-opacity:1"
         id="rect25"
         width="204.05365"
         height="114.06127"
         x="28.515463"
         y="74.045197"
         rx="17.324856"
         ry="15.772744" />
      <path
         style="fill:#bc9c00;fill-opacity:1;stroke:#bc9c00;stroke-width:0.400588;stroke-linecap:square;stroke-linejoin:miter;stroke-dasharray:none;stroke-dashoffset:0;stroke-opacity:1"
         d="m 44.447019,186.30287 c -6.220951,-0.51802 -11.549395,-4.46213 -13.412451,-9.92787 -0.561257,-1.64659 -0.664671,-2.68962 -0.664671,-6.70396 v -3.73368 H 130.53764 230.70538 v 3.40957 c 0,3.75751 -0.10206,4.92584 -0.57293,6.55837 -0.60337,2.09193 -1.6194,3.82764 -3.23175,5.52084 -2.28762,2.40236 -5.23551,3.98296 -8.8021,4.71951 -1.00453,0.20744 -5.61978,0.22014 -86.74964,0.23868 -47.12876,0.0108 -86.234637,-0.0259 -86.901941,-0.0815 z"
         id="path147" />
      <path
         style="fill:#00e4d1;fill-opacity:1;stroke:#00e4d1;stroke-width:1.2312;stroke-linecap:square;stroke-linejoin:miter;stroke-dasharray:none;stroke-dashoffset:0;stroke-opacity:1"
         d="m 30.770239,124.42645 0.103034,-38.356863 1.120062,-2.028043 c 1.300443,-2.354606 4.033188,-5.051283 6.288513,-6.205507 4.029702,-2.062283 -0.939865,-1.956495 91.899262,-1.956495 56.11337,0 86.62882,0.134424 87.95881,0.387478 4.67178,0.888762 8.54444,3.684297 10.74543,7.756501 l 1.31376,2.430593 0.10299,38.164616 0.10314,38.16449 H 130.53621 30.667189 Z"
         id="path148" />
      <path
         style="fill:#ffffff;fill-opacity:1;stroke:#bc9c00;stroke-width:3.18799;stroke-linecap:square;stroke-linejoin:bevel;stroke-dasharray:none;stroke-dashoffset:0;stroke-opacity:1"
         d="m 31.771799,164.33388 c 197.540951,0 197.540951,0 197.540951,0"
         id="path25" />
    </g>
    <text
       xml:space="preserve"
       style="font-size:23.3205px;font-family:FreeSans;-inkscape-font-specification:FreeSans;fill:#000000;fill-opacity:1;stroke:#000000;stroke-width:1.043;stroke-linecap:square;stroke-dasharray:none;stroke-opacity:1"
       x="86.372261"
       y="226.2587"
       id="text3"><tspan
         id="tspan3"
         x="86.372261"
         y="226.2587"
         style="fill:#000000;fill-opacity:1;stroke-width:1.043;stroke-dasharray:none">Weapons</tspan></text>
    <g
       id="g159"
       transform="translate(0.10633577)">
      <path
         style="fill:#f0c08a;fill-opacity:1;stroke:#000000;stroke-width:3.16136;stroke-linecap:square;stroke-linejoin:miter;stroke-dasharray:none;stroke-dashoffset:0;stroke-opacity:1"
         id="path149"
         d="m 146.51928,112.59685 a 15.981041,13.995823 0 0 1 -15.96268,13.99581 15.981041,13.995823 0 0 1 -15.99936,-13.96364 15.981041,13.995823 0 0 1 15.9259,-14.027912 15.981041,13.995823 0 0 1 16.03597,13.931402" />
      <g
         id="g152"
         transform="matrix(0.99301754,0,0,1.1429025,-0.26200388,1.3320757)">
        <path
           d="m 120.56634,93.806645 c 0,0 -1.26016,3.574291 2.88293,5.361614 4.14308,1.787321 4.68345,-2.323509 4.68345,-2.323509 z"
           style="fill:#ffffff;fill-opacity:1;stroke:#000000;stroke-width:2.23676;stroke-linecap:square;stroke-dasharray:none"
           id="path151" />
        <path
           d="m 142.88176,93.806645 c 0,0 1.26016,3.574291 -2.88293,5.361614 -4.14308,1.787321 -4.68345,-2.323509 -4.68345,-2.323509 z"
           style="fill:#ffffff;fill-opacity:1;stroke:#000000;stroke-width:2.23687;stroke-linecap:square;stroke-dasharray:none"
           id="path152" />
      </g>
      <path
         style="fill:#ffffff;fill-opacity:1;stroke:#000000;stroke-width:2.107;stroke-linecap:square;stroke-linejoin:miter;stroke-dasharray:none;stroke-dashoffset:0;stroke-opacity:1"
         d="m 115.61089,103.94839 c 2.83632,-8.171194 27.39606,-7.517877 30.42392,0 1.29448,3.21406 -0.0475,-7.770431 0,-16.254352 0.0475,-8.483921 -11.75814,-11.478997 -13.91603,-1.548015 -1.60753,7.398116 -3.49287,7.240811 -4.69772,-0.08451 -1.57649,-9.58484 -13.4603,-7.48622 -13.5849,1.801548 0,0 -0.32885,22.145549 1.77473,16.085329 z"
         id="path153" />
      <path
         style="fill:#8b8b8b;fill-opacity:1;stroke:#000000;stroke-width:1.307;stroke-linecap:square;stroke-linejoin:miter;stroke-dasharray:none;stroke-dashoffset:0;stroke-opacity:1"
         d="m 126.01193,145.33199 v -4.78066 c 0,0 -3.34646,-1.31468 -3.70501,0.11952 -0.35855,1.4342 0,-2.98791 0,-2.98791 h 6.21485 v 8.36615"
         id="path157" />
      <path
         style="fill:#8b8b8b;fill-opacity:1;stroke:#000000;stroke-width:1.307;stroke-linecap:square;stroke-linejoin:miter;stroke-dasharray:none;stroke-dashoffset:0;stroke-opacity:1"
         d="m 135.07845,145.33199 v -4.78066 c 0,0 3.34646,-1.31468 3.70501,0.11952 0.35855,1.4342 0,-2.98791 0,-2.98791 h -6.21485 v 8.36615"
         id="path158" />
      <path
         style="fill:#ffffff;fill-opacity:1;stroke:#ba6b00;stroke-width:2.707;stroke-linecap:square;stroke-linejoin:miter;stroke-dasharray:none;stroke-dashoffset:0;stroke-opacity:1"
         d="m 125.37275,145.33199 v 5.97582 c 0,0 3.36948,3.03322 5.25872,-0.23904 1.79275,3.34646 4.79039,0.58472 4.78065,0.47807 0.22931,-3.81166 0.23904,-6.09534 0.23904,-6.09534 z"
         id="path156" />
      <path
         style="fill:#ffffff;fill-opacity:0;stroke:#000000;stroke-width:2.107;stroke-linecap:square;stroke-linejoin:miter;stroke-dasharray:none;stroke-dashoffset:0;stroke-opacity:1"
         d="m 120.41328,162.84114 10.09914,-10.09914 10.63697,10.63697"
         id="path155" />
      <path
         style="fill:#ffffff;fill-opacity:1;stroke:#000000;stroke-width:2.107;stroke-linecap:square;stroke-linejoin:miter;stroke-dasharray:none;stroke-dashoffset:0;stroke-opacity:1"
         d="m 130.54229,126.92645 v 25.57652"
         id="path154" />
      <path
         style="fill:#8b8b8b;fill-opacity:0.0071599;stroke:#000000;stroke-width:2.107;stroke-linecap:square;stroke-linejoin:miter;stroke-dasharray:none;stroke-dashoffset:0;stroke-opacity:1"
         d="m 122.92266,137.9817 7.70881,-7.70881 7.58929,7.58929"
         id="path159" />
    </g>
    <text
       xml:space="preserve"
       style="font-size:16.9805px;font-family:FreeSans;-inkscape-font-specification:FreeSans;fill:#000000;fill-opacity:1;stroke:#000000;stroke-width:0.266167;stroke-linecap:square;stroke-dasharray:none;stroke-opacity:1"
       x="25.246489"
       y="246.12964"
       id="text5"><tspan
         x="25.246489"
         y="246.12964"
         id="tspan6"
         style="stroke-width:0.266167;stroke-dasharray:none">Revolver</tspan></text>
    <text
       xml:space="preserve"
       style="font-style:italic;font-variant:normal;font-weight:normal;font-stretch:normal;font-size:7.42918px;font-family:FreeSans;-inkscape-font-specification:FreeSans;font-variant-ligatures:normal;font-variant-caps:normal;font-variant-numeric:normal;font-variant-east-asian:normal;fill:#4a4a4a;fill-opacity:1;stroke:#4a4a4a;stroke-width:0.190682;stroke-linecap:square;stroke-dasharray:none;stroke-opacity:1"
       x="64.99646"
       y="199.64288"
       id="text7"><tspan
         id="tspan7"
         x="64.99646"
         y="199.64288"
         style="font-style:italic;font-variant:normal;font-weight:normal;font-stretch:normal;font-size:7.42918px;font-family:FreeSans;-inkscape-font-specification:FreeSans;font-variant-ligatures:normal;font-variant-caps:normal;font-variant-numeric:normal;font-variant-east-asian:normal;fill:#4a4a4a;fill-opacity:1;stroke:#4a4a4a;stroke-width:0.190682;stroke-opacity:1">This town ain't big enough for the two of us</tspan></text>
    <g
       id="g69"
       transform="translate(485.53847,3.1625324)">
      <rect
         style="fill:none;fill-opacity:1;stroke:#97a300;stroke-width:3.32576;stroke-linecap:square;stroke-linejoin:bevel;stroke-dasharray:none;stroke-dashoffset:0;stroke-opacity:1"
         id="rect66"
         width="204.05365"
         height="114.06127"
         x="28.515463"
         y="74.045197"
         rx="17.324856"
         ry="15.772744" />
      <path
         d="m 29.497451,163.87987 v 4.10811 c 0,4.41611 0.103611,5.56261 0.669266,7.374 1.877652,6.01277 7.247513,10.35146 13.517204,10.92134 0.672533,0.0612 40.08529,0.10207 87.583279,0.0902 81.76551,-0.0203 86.41738,-0.0339 87.42976,-0.26213 3.59454,-0.81025 6.56421,-2.55035 8.86975,-5.19316 1.62498,-1.86265 2.64965,-3.77065 3.25775,-6.07193 0.47457,-1.79592 0.57675,-3.08143 0.57675,-7.21502 v -3.75143 H 130.44834 Z"
         style="fill:#ab9441;fill-opacity:1;stroke:#ab9441;stroke-width:0.421799;stroke-linecap:square;stroke-opacity:1"
         id="path82" />
      <path
         style="fill:#c1c1c1;fill-opacity:1;stroke:#c1c1c1;stroke-width:1.2374;stroke-linecap:square;stroke-linejoin:miter;stroke-dasharray:none;stroke-dashoffset:0;stroke-opacity:1"
         d="m 30.773339,124.92115 0.103031,-38.745271 1.120027,-2.04858 c 1.300403,-2.378449 4.033063,-5.102433 6.288318,-6.268345 4.029577,-2.083167 -0.939836,-1.976307 91.896405,-1.976307 56.11163,0 86.62613,0.135785 87.95608,0.391401 4.67163,0.897762 8.54417,3.721605 10.74509,7.835046 l 1.31372,2.455205 0.10299,38.551081 0.10314,38.55095 H 130.53621 30.670293 Z"
         id="path69" />
      <path
         style="fill:none;fill-rule:evenodd;stroke:#bc9c00;stroke-opacity:1"
         id="path83"
         d="m 47.855251,148.5876 c 0.459142,0.11849 0.0668,0.67737 -0.196935,0.76312 -0.714718,0.23239 -1.293692,-0.51717 -1.329313,-1.15699 -0.06372,-1.14448 1.053353,-1.94175 2.117053,-1.8955 1.561023,0.0679 2.602553,1.59447 2.461691,3.07711 -0.187746,1.97613 -2.137034,3.2684 -4.03717,3.02788 -2.391128,-0.30267 -3.936781,-2.68021 -3.59407,-4.99723 0.41507,-2.80622 3.223726,-4.60661 5.957289,-4.16026 3.221409,0.52601 5.27735,3.76744 4.726447,6.91735 -0.636039,3.63669 -4.311293,5.9487 -7.877406,5.29264 -4.052044,-0.74546 -6.620465,-4.85525 -5.858826,-8.83747 0.854445,-4.46745 5.399262,-7.29254 9.797524,-6.42501 4.882905,0.96312 7.964855,5.94333 6.991204,10.75758"
         transform="translate(-484.23474,-3.1625324)" />
      <path
         style="fill:none;fill-rule:evenodd;stroke:#bc9c00;stroke-opacity:1"
         id="path84"
         d="m 47.855251,148.5876 c 0.459142,0.11849 0.0668,0.67737 -0.196935,0.76312 -0.714718,0.23239 -1.293692,-0.51717 -1.329313,-1.15699 -0.06372,-1.14448 1.053353,-1.94175 2.117053,-1.8955 1.561023,0.0679 2.602553,1.59447 2.461691,3.07711 -0.187746,1.97613 -2.137034,3.2684 -4.03717,3.02788 -2.391128,-0.30267 -3.936781,-2.68021 -3.59407,-4.99723 0.41507,-2.80622 3.223726,-4.60661 5.957289,-4.16026 3.221409,0.52601 5.27735,3.76744 4.726447,6.91735 -0.636039,3.63669 -4.311293,5.9487 -7.877406,5.29264 -4.052044,-0.74546 -6.620465,-4.85525 -5.858826,-8.83747 0.854445,-4.46745 5.399262,-7.29254 9.797524,-6.42501 4.882905,0.96312 7.964855,5.94333 6.991204,10.75758"
         transform="rotate(53.054559,-117.49345,-189.98147)" />
      <path
         style="fill:none;fill-rule:evenodd;stroke:#bc9c00;stroke-opacity:1"
         id="path86"
         d="m 47.855251,148.5876 c 0.459142,0.11849 0.0668,0.67737 -0.196935,0.76312 -0.714718,0.23239 -1.293692,-0.51717 -1.329313,-1.15699 -0.06372,-1.14448 1.053353,-1.94175 2.117053,-1.8955 1.561023,0.0679 2.602553,1.59447 2.461691,3.07711 -0.187746,1.97613 -2.137034,3.2684 -4.03717,3.02788 -2.391128,-0.30267 -3.936781,-2.68021 -3.59407,-4.99723 0.41507,-2.80622 3.223726,-4.60661 5.957289,-4.16026 3.221409,0.52601 5.27735,3.76744 4.726447,6.91735 -0.636039,3.63669 -4.311293,5.9487 -7.877406,5.29264 -4.052044,-0.74546 -6.620465,-4.85525 -5.858826,-8.83747 0.854445,-4.46745 5.399262,-7.29254 9.797524,-6.42501 4.882905,0.96312 7.964855,5.94333 6.991204,10.75758"
         transform="rotate(114.36168,-137.40108,29.552196)" />
      <path
         style="fill:none;fill-rule:evenodd;stroke:#bc9c00;stroke-opacity:1"
         id="path87"
         d="m 47.855251,148.5876 c 0.459142,0.11849 0.0668,0.67737 -0.196935,0.76312 -0.714718,0.23239 -1.293692,-0.51717 -1.329313,-1.15699 -0.06372,-1.14448 1.053353,-1.94175 2.117053,-1.8955 1.561023,0.0679 2.602553,1.59447 2.461691,3.07711 -0.187746,1.97613 -2.137034,3.2684 -4.03717,3.02788 -2.391128,-0.30267 -3.936781,-2.68021 -3.59407,-4.99723 0.41507,-2.80622 3.223726,-4.60661 5.957289,-4.16026 3.221409,0.52601 5.27735,3.76744 4.726447,6.91735 -0.636039,3.63669 -4.311293,5.9487 -7.877406,5.29264 -4.052044,-0.74546 -6.620465,-4.85525 -5.858826,-8.83747 0.854445,-4.46745 5.399262,-7.29254 9.797524,-6.42501 4.882905,0.96312 7.964855,5.94333 6.991204,10.75758"
         transform="rotate(95.656379,-179.70964,-57.625966)" />
    </g>
  </g>
</svg>
