<?xml version="1.0" encoding="UTF-8" standalone="no"?>
<!-- Created with Inkscape (http://www.inkscape.org/) -->

<svg
   version="1.1"
   id="svg1"
   width="240.95074"
   height="337.2778"
   viewBox="0 0 240.95078 337.27781"
   xmlns="http://www.w3.org/2000/svg"
   xmlns:svg="http://www.w3.org/2000/svg">
  <defs
     id="defs1" />
  <g
     id="g1"
     transform="translate(-736.30172,-18.647643)">
    <rect
       style="fill:#ffffff;fill-opacity:1;stroke:#000000;stroke-width:1.448;stroke-linecap:square;stroke-linejoin:bevel;stroke-dasharray:none;stroke-dashoffset:0;stroke-opacity:1"
       id="rect18"
       width="239.50278"
       height="335.8298"
       x="737.0257"
       y="19.371643"
       rx="17.33494"
       ry="14.657856" />
    <g
       id="g29"
       transform="translate(726.23477,3.162532)">
      <rect
         style="fill:none;fill-opacity:1;stroke:#97a300;stroke-width:3.32576;stroke-linecap:square;stroke-linejoin:bevel;stroke-dasharray:none;stroke-dashoffset:0;stroke-opacity:1"
         id="rect27"
         width="204.05365"
         height="114.06127"
         x="28.515463"
         y="74.045197"
         rx="17.324856"
         ry="15.772744" />
      <path
         style="fill:#ceddb2;fill-opacity:1;stroke:#ceddb2;stroke-width:3.18799;stroke-linecap:square;stroke-linejoin:bevel;stroke-dasharray:none;stroke-dashoffset:0;stroke-opacity:1"
         d="m 31.771799,164.33388 c 197.540951,0 197.540951,0 197.540951,0"
         id="path27" />
      <path
         style="fill:#ceddb2;fill-opacity:1;stroke:#ceddb2;stroke-width:0.400588;stroke-linecap:square;stroke-linejoin:miter;stroke-dasharray:none;stroke-dashoffset:0;stroke-opacity:1"
         d="m 44.447019,186.30287 c -6.220951,-0.51802 -11.549395,-4.46213 -13.412451,-9.92787 -0.561257,-1.64659 -0.664671,-2.68962 -0.664671,-6.70396 v -3.73368 H 130.53764 230.70538 v 3.40957 c 0,3.75751 -0.10206,4.92584 -0.57293,6.55837 -0.60337,2.09193 -1.6194,3.82764 -3.23175,5.52084 -2.28762,2.40236 -5.23551,3.98296 -8.8021,4.71951 -1.00453,0.20744 -5.61978,0.22014 -86.74964,0.23868 -47.12876,0.0108 -86.234637,-0.0259 -86.901941,-0.0815 z"
         id="path28" />
      <path
         style="fill:#979797;fill-opacity:1;stroke:#979797;stroke-width:1.2312;stroke-linecap:square;stroke-linejoin:miter;stroke-dasharray:none;stroke-dashoffset:0;stroke-opacity:1"
         d="m 30.770239,124.42645 0.103034,-38.356863 1.120062,-2.028043 c 1.300443,-2.354606 4.033188,-5.051283 6.288513,-6.205507 4.029702,-2.062283 -0.939865,-1.956495 91.899262,-1.956495 56.11337,0 86.62882,0.134424 87.95881,0.387478 4.67178,0.888762 8.54444,3.684297 10.74543,7.756501 l 1.31376,2.430593 0.10299,38.164616 0.10314,38.16449 H 130.53621 30.667189 Z"
         id="path29" />
    </g>
    <text
       xml:space="preserve"
       style="font-style:normal;font-variant:normal;font-weight:normal;font-stretch:normal;font-size:12px;font-family:FreeSans;-inkscape-font-specification:FreeSans;font-variant-ligatures:normal;font-variant-caps:normal;font-variant-numeric:normal;font-variant-east-asian:normal;white-space:pre;inline-size:136.983;display:inline;fill:#000000;fill-opacity:1;stroke:#000000;stroke-width:0.335667;stroke-linecap:square;stroke-linejoin:bevel;stroke-dasharray:none;stroke-dashoffset:0;stroke-opacity:1"
       x="32.194382"
       y="40.746014"
       id="text42"
       transform="matrix(3.5958254,0,0,3.5958254,656.84441,-83.166708)"><tspan
         x="32.194382"
         y="40.746014"
         id="tspan1">Imposter</tspan></text>
    <text
       xml:space="preserve"
       style="font-style:normal;font-variant:normal;font-weight:normal;font-stretch:normal;font-size:23.3205px;font-family:FreeSans;-inkscape-font-specification:FreeSans;font-variant-ligatures:normal;font-variant-caps:normal;font-variant-numeric:normal;font-variant-east-asian:normal;fill:#000000;fill-opacity:1;stroke:#000000;stroke-width:1.043;stroke-linecap:square;stroke-dasharray:none;stroke-opacity:1"
       x="803.0459"
       y="229.42126"
       id="text43"><tspan
         id="tspan43"
         x="803.0459"
         y="229.42126"
         style="font-style:normal;font-variant:normal;font-weight:normal;font-stretch:normal;font-size:23.3205px;font-family:FreeSans;-inkscape-font-specification:FreeSans;font-variant-ligatures:normal;font-variant-caps:normal;font-variant-numeric:normal;font-variant-east-asian:normal;fill:#000000;fill-opacity:1;stroke-width:1.043;stroke-dasharray:none">Weapons</tspan></text>
    <text
       xml:space="preserve"
       style="font-style:normal;font-variant:normal;font-weight:normal;font-stretch:normal;font-size:16.9805px;font-family:FreeSans;-inkscape-font-specification:FreeSans;font-variant-ligatures:normal;font-variant-caps:normal;font-variant-numeric:normal;font-variant-east-asian:normal;fill:#000000;fill-opacity:1;stroke:#000000;stroke-width:0.266167;stroke-linecap:square;stroke-dasharray:none;stroke-opacity:1"
       x="752.21094"
       y="249.29218"
       id="text44"><tspan
         x="752.21094"
         y="249.29218"
         id="tspan44"
         style="font-style:normal;font-variant:normal;font-weight:normal;font-stretch:normal;font-size:16.9805px;font-family:FreeSans;-inkscape-font-specification:FreeSans;font-variant-ligatures:normal;font-variant-caps:normal;font-variant-numeric:normal;font-variant-east-asian:normal;stroke-width:0.266167;stroke-dasharray:none">Tongue</tspan><tspan
         x="752.21094"
         y="270.51779"
         style="font-style:normal;font-variant:normal;font-weight:normal;font-stretch:normal;font-size:16.9805px;font-family:FreeSans;-inkscape-font-specification:FreeSans;font-variant-ligatures:normal;font-variant-caps:normal;font-variant-numeric:normal;font-variant-east-asian:normal;stroke-width:0.266167;stroke-dasharray:none"
         id="tspan46">Gun</tspan></text>
    <text
       xml:space="preserve"
       style="font-style:normal;font-variant:normal;font-weight:normal;font-stretch:normal;font-size:7.42918px;font-family:FreeSans;-inkscape-font-specification:FreeSans;font-variant-ligatures:normal;font-variant-caps:normal;font-variant-numeric:normal;font-variant-east-asian:normal;fill:#4a4a4a;fill-opacity:1;stroke:#4a4a4a;stroke-width:0.190682;stroke-linecap:square;stroke-dasharray:none;stroke-opacity:1"
       x="837.45184"
       y="202.80544"
       id="text45"><tspan
         x="837.45184"
         y="202.80544"
         style="font-style:normal;font-variant:normal;font-weight:normal;font-stretch:normal;font-size:7.42918px;font-family:FreeSans;-inkscape-font-specification:FreeSans;font-variant-ligatures:normal;font-variant-caps:normal;font-variant-numeric:normal;font-variant-east-asian:normal;fill:#4a4a4a;fill-opacity:1;stroke:#4a4a4a;stroke-width:0.190682;stroke-opacity:1"
         id="tspan47">Red is Sus</tspan></text>
    <g
       id="g48"
       transform="matrix(0.889197,0,0,0.90188286,99.381754,20.30576)">
      <path
         style="fill:#c30000;fill-opacity:1;stroke:#000000;stroke-width:1.59589;stroke-linecap:square;stroke-dasharray:none;stroke-opacity:1"
         d="m 832.70369,155.28739 v 4.7156 c 0.83688,2.00673 12.51677,2.02318 14.07384,0 0,-3.20106 0.75348,-4.7156 0.75348,-4.7156 0,0 1.27105,1.45592 1.27105,4.7156 1.75642,1.93179 10.23149,1.90811 13.23714,0.30774 0,-1.51858 0,-5.16999 0,-5.16999 l 0.076,-30.23872 c 0,0 -0.0289,-1.51577 -0.0289,-2.40127 0,-15.46245 -29.11441,-15.29622 -29.11441,0 0,1.39383 -0.35052,2.40127 -0.35052,2.40127 0,0 -4.67008,0.10887 -6.62075,4.31246 -1.95065,4.20359 -1.7346,12.50191 0,15.50534 1.02993,1.78329 6.62075,1.54689 6.62075,1.54689 z"
         id="path46" />
      <path
         style="fill:#ae0000;fill-opacity:1;stroke:#000000;stroke-width:1.59589;stroke-linecap:square;stroke-dasharray:none;stroke-opacity:1"
         d="m 832.64613,125.03136 v 21.11529"
         id="path47" />
    </g>
    <rect
       style="fill:#00d7b4;fill-opacity:1;stroke:#000000;stroke-width:2.03748;stroke-linecap:square;stroke-dasharray:none;stroke-opacity:1"
       id="rect47"
       width="18.454674"
       height="11.618157"
       x="852.31799"
       y="130.14323"
       ry="3.0236199"
       rx="2.3502107" />
    <g
       id="g68"
       transform="rotate(-71.87704,828.98586,623.80785)">
      <path
         style="fill:#8a8a8a;fill-opacity:1;stroke:#000000;stroke-width:1.70918;stroke-linecap:square;stroke-dasharray:none;stroke-opacity:1"
         d="m 1291.1464,515.72285 v 9.45709 l 4.9084,0.007 -0.2006,-4.29646 11.7508,-0.41941 -0.015,-4.78564 z"
         id="path63-2" />
      <path
         d="m 1292.5509,518.30506 0.1453,5.27951 2.0323,0.13514 c 0,0 0.01,0.0363 -0.2058,-3.60258 -0.9373,-0.17555 -1.9718,-1.81207 -1.9718,-1.81207 z"
         style="fill:#b27708;fill-opacity:1;stroke:#000000;stroke-width:0.417721;stroke-linecap:round;stroke-opacity:1"
         id="path65-3" />
      <path
         style="fill:none;fill-opacity:1;stroke:#000000;stroke-width:0.417721;stroke-linecap:round;stroke-linejoin:miter;stroke-dasharray:none;stroke-dashoffset:0;stroke-opacity:1"
         d="m 1298.3623,521.71525 c 0,0 0.2091,1.22538 -1.6104,1.24212"
         id="path66-5" />
      <rect
         style="fill:#8a8a8a;fill-opacity:1;stroke:#000000;stroke-width:0.206109;stroke-linecap:round;stroke-linejoin:miter;stroke-dasharray:none;stroke-dashoffset:0;stroke-opacity:1"
         id="rect68-7"
         width="0.50500727"
         height="0.58917516"
         x="1268.4362"
         y="588.11462"
         transform="rotate(-2.961349)" />
    </g>
    <g
       id="g146">
      <rect
         style="fill:none;fill-opacity:1;stroke:#000000;stroke-width:1.7;stroke-linecap:round;stroke-linejoin:round;stroke-dasharray:none;stroke-dashoffset:0;stroke-opacity:1"
         id="rect111"
         width="24.125"
         height="24.125"
         x="764.875"
         y="141.5"
         rx="0"
         ry="0" />
      <rect
         style="fill:none;fill-opacity:1;stroke:#000000;stroke-width:1.7;stroke-linecap:round;stroke-linejoin:round;stroke-dasharray:none;stroke-dashoffset:0;stroke-opacity:1"
         id="rect111-1"
         width="24.125"
         height="24.125"
         x="771.84998"
         y="129.85001"
         rx="0"
         ry="0" />
      <path
         style="fill:none;fill-opacity:1;stroke:#000000;stroke-width:1.7;stroke-linecap:round;stroke-linejoin:round;stroke-dasharray:none;stroke-dashoffset:0;stroke-opacity:1"
         d="M 771.84998,129.85001 764.875,141.5"
         id="path111" />
      <path
         style="fill:none;fill-opacity:1;stroke:#000000;stroke-width:1.7;stroke-linecap:round;stroke-linejoin:round;stroke-dasharray:none;stroke-dashoffset:0;stroke-opacity:1"
         d="m 789,141.5 6.97498,-11.64999"
         id="path112" />
      <path
         style="fill:none;fill-opacity:1;stroke:#000000;stroke-width:1.7;stroke-linecap:round;stroke-linejoin:round;stroke-dasharray:none;stroke-dashoffset:0;stroke-opacity:1"
         d="m 789,165.625 6.97498,-11.64999"
         id="path113" />
      <path
         style="fill:none;fill-opacity:1;stroke:#000000;stroke-width:1.7;stroke-linecap:round;stroke-linejoin:round;stroke-dasharray:none;stroke-dashoffset:0;stroke-opacity:1"
         d="m 764.875,165.625 6.97498,-11.64999"
         id="path114" />
      <path
         style="fill:#287622;fill-opacity:1;stroke:#287622;stroke-width:0.2125;stroke-linecap:round;stroke-linejoin:round;stroke-dasharray:none;stroke-dashoffset:0;stroke-opacity:1"
         d="m 766.58333,164.57951 c 0.0229,-0.0594 1.3291,-2.25315 2.90262,-4.875 l 2.86095,-4.76701 h 7.8578 7.8578 v 4.875 4.875 h -10.76042 c -5.99264,0 -10.74195,-0.0479 -10.71875,-0.10799 z"
         id="path122" />
      <g
         id="g147">
        <path
           style="fill:#287622;fill-opacity:1;stroke:#287622;stroke-width:0.2125;stroke-linecap:round;stroke-linejoin:round;stroke-dasharray:none;stroke-dashoffset:0;stroke-opacity:1"
           d="m 772.8125,135.6875 v -4.875 h 10.75708 10.75709 l -0.32086,0.53125 c -0.17648,0.29219 -1.48741,2.48594 -2.91318,4.875 l -2.59232,4.34375 h -7.84391 -7.8439 z"
           id="path115" />
        <path
           style="fill:#287622;fill-opacity:1;stroke:#287622;stroke-width:0.2125;stroke-linecap:round;stroke-linejoin:round;stroke-dasharray:none;stroke-dashoffset:0;stroke-opacity:1"
           d="m 789.9375,147.38392 v -5.67858 l 2.45538,-4.10267 c 1.35046,-2.25647 2.50358,-4.15611 2.5625,-4.22142 0.0596,-0.0661 0.10712,4.2738 0.10712,9.78125 v 9.9 H 792.5 789.9375 Z"
           id="path120" />
        <path
           style="fill:#287622;fill-opacity:1;stroke:#287622;stroke-width:0.2125;stroke-linecap:round;stroke-linejoin:round;stroke-dasharray:none;stroke-dashoffset:0;stroke-opacity:1"
           d="m 772.8125,147.75 v -5.3125 h 7.625 7.625 v 5.3125 5.3125 h -7.625 -7.625 z"
           id="path121" />
        <path
           style="fill:#287622;fill-opacity:1;stroke:#287622;stroke-width:0.2125;stroke-linecap:round;stroke-linejoin:round;stroke-dasharray:none;stroke-dashoffset:0;stroke-opacity:1"
           d="m 789.93758,158.59375 -8e-5,-3.65625 h 2.19769 2.1977 l -0.24909,0.40625 c -0.137,0.22344 -1.12593,1.86875 -2.19762,3.65625 l -1.94851,3.25 z"
           id="path123" />
        <path
           style="fill:#287622;fill-opacity:1;stroke:#287622;stroke-width:0.2125;stroke-linecap:round;stroke-linejoin:round;stroke-dasharray:none;stroke-dashoffset:0;stroke-opacity:1"
           d="m 765.81262,152.34375 -1.2e-4,-9.90625 h 2.5625 2.5625 v 5.63571 5.63571 l -2.56238,4.27054 -2.56239,4.27054 z"
           id="path124" />
        <path
           style="fill:#287622;fill-opacity:1;stroke:#287622;stroke-width:0.2125;stroke-linecap:round;stroke-linejoin:round;stroke-dasharray:none;stroke-dashoffset:0;stroke-opacity:1"
           d="m 766.5625,140.50866 c 0,-0.0744 4.13528,-6.98021 4.26796,-7.12741 0.0597,-0.0662 0.10704,1.49716 0.10704,3.53125 v 3.65 H 768.75 c -1.20313,0 -2.1875,-0.0242 -2.1875,-0.0538 z"
           id="path125" />
        <path
           style="fill:#515151;fill-opacity:1;stroke:#287622;stroke-width:0.2;stroke-linecap:round;stroke-linejoin:round;stroke-dasharray:none;stroke-dashoffset:0;stroke-opacity:1"
           d="m 770.9375,142.4375 h 1.875"
           id="path126" />
        <path
           style="fill:#515151;fill-opacity:1;stroke:#287622;stroke-width:0.2;stroke-linecap:round;stroke-linejoin:round;stroke-dasharray:none;stroke-dashoffset:0;stroke-opacity:1"
           d="m 770.9375,153.70892 1.875,-0.64642"
           id="path127" />
        <path
           style="fill:#287622;fill-opacity:1;stroke:#287622;stroke-width:0.2;stroke-linecap:round;stroke-linejoin:round;stroke-dasharray:none;stroke-dashoffset:0;stroke-opacity:1"
           d="m 771.05023,148.05016 v -5.50738 h 0.82311 0.82312 v 5.22412 5.22411 l -0.53862,0.18558 c -0.29624,0.10206 -0.66664,0.22953 -0.82311,0.28326 l -0.2845,0.0977 z"
           id="path129" />
        <path
           style="fill:none;fill-opacity:1;stroke:#287622;stroke-width:0.2;stroke-linecap:round;stroke-linejoin:round;stroke-dasharray:none;stroke-dashoffset:0;stroke-opacity:1"
           d="m 765.81273,162.25 0.7706,2.32951"
           id="path132" />
        <path
           style="fill:none;fill-opacity:1;stroke:#287622;stroke-width:0.2;stroke-linecap:round;stroke-linejoin:round;stroke-dasharray:none;stroke-dashoffset:0;stroke-opacity:1"
           d="m 794.20834,155.14062 0.85416,-2.07812"
           id="path133" />
        <path
           style="fill:#515151;fill-opacity:1;stroke:#287622;stroke-width:0.2;stroke-linecap:round;stroke-linejoin:round;stroke-dasharray:none;stroke-dashoffset:0;stroke-opacity:1"
           d="m 788.0625,154.9375 v -1.875"
           id="path140" />
        <path
           style="fill:#515151;fill-opacity:1;stroke:#287622;stroke-width:0.2;stroke-linecap:round;stroke-linejoin:round;stroke-dasharray:none;stroke-dashoffset:0;stroke-opacity:1"
           d="m 789.9375,154.9375 v -1.875"
           id="path141" />
        <path
           style="fill:#287622;fill-opacity:1;stroke:#287622;stroke-width:0.2;stroke-linecap:round;stroke-linejoin:round;stroke-dasharray:none;stroke-dashoffset:0;stroke-opacity:1"
           d="m 766.27128,163.24242 -0.31971,-0.96141 2.50259,-4.17635 c 1.37643,-2.297 2.53481,-4.20969 2.57419,-4.25044 0.0394,-0.0407 0.45661,-0.20481 0.92719,-0.3646 l 0.8556,-0.29052 h 7.57444 7.57444 v 0.7955 0.79549 l -7.81132,6.8e-4 c -4.29623,3.7e-4 -7.83303,0.0153 -7.85957,0.0331 -0.0265,0.0179 -1.30532,2.13058 -2.84175,4.69495 -1.53642,2.56437 -2.80765,4.66754 -2.82494,4.67372 -0.0173,0.006 -0.17532,-0.42139 -0.35116,-0.95017 z"
           id="path142" />
        <path
           style="fill:#287622;fill-opacity:1;stroke:#287622;stroke-width:0.2;stroke-linecap:round;stroke-linejoin:round;stroke-dasharray:none;stroke-dashoffset:0;stroke-opacity:1"
           d="m 790.03715,153.9946 v -0.7955 h 2.41331 c 2.27996,0 2.41171,0.004 2.38434,0.0773 -0.0159,0.0425 -0.16075,0.40051 -0.32181,0.7955 l -0.29284,0.71815 h -2.0915 -2.0915 z"
           id="path143" />
        <path
           style="fill:#515151;fill-opacity:1;stroke:#287622;stroke-width:0.2;stroke-linecap:round;stroke-linejoin:round;stroke-dasharray:none;stroke-dashoffset:0;stroke-opacity:1"
           d="m 770.83046,133.38125 1.98204,-2.56875"
           id="path144" />
        <path
           style="fill:#515151;fill-opacity:1;stroke:#287622;stroke-width:0.2;stroke-linecap:round;stroke-linejoin:round;stroke-dasharray:none;stroke-dashoffset:0;stroke-opacity:1"
           d="m 770.9375,140.5625 h 1.875"
           id="path145" />
        <path
           style="fill:#287622;fill-opacity:1;stroke:#287622;stroke-width:0.2;stroke-linecap:round;stroke-linejoin:round;stroke-dasharray:none;stroke-dashoffset:0;stroke-opacity:1"
           d="m 771.07785,138.46757 c 0,-1.07767 -0.0126,-2.67364 -0.0281,-3.54658 l -0.0281,-1.58717 0.78472,-1.01646 c 0.43159,-0.55906 0.8022,-1.03536 0.82358,-1.05845 0.0224,-0.0242 0.0389,1.91154 0.0389,4.56304 v 4.60504 h -0.7955 -0.79549 z"
           id="path146" />
      </g>
      <path
         style="fill:#727272;fill-opacity:1;stroke:#000000;stroke-width:0.159083;stroke-linecap:round;stroke-linejoin:round;stroke-opacity:1"
         d="m 771.00764,139.01725 4.13172,-6.37801 15.61526,0.0788 -4.26923,6.33638 z"
         id="path5" />
      <path
         style="fill:#727272;fill-opacity:1;stroke:#000000;stroke-width:0.2;stroke-linecap:round;stroke-linejoin:round;stroke-opacity:1"
         d="m 790.6875,132.78469 v -9.97219 h -15.5 l -0.0625,9.84719 15.5625,0.125"
         id="path16" />
      <path
         style="fill:#009ad3;fill-opacity:1;stroke:#000000;stroke-width:0.178906;stroke-linecap:round;stroke-linejoin:round;stroke-opacity:1"
         d="m 789.8668,132.2588 v -8.92041 h -13.86519 l -0.0559,8.80859 13.9211,0.11182"
         id="path17" />
      <path
         style="fill:#929292;fill-opacity:1;stroke:#000000;stroke-width:0.133373;stroke-linecap:round;stroke-linejoin:round;stroke-opacity:1"
         d="m 772.60334,138.50486 3.46398,-5.34723 13.0916,0.0661 -3.57926,5.31233 z"
         id="path18" />
    </g>
  </g>
</svg>
