<?xml version="1.0" encoding="UTF-8" standalone="no"?>
<!-- Created with Inkscape (http://www.inkscape.org/) -->

<svg
   version="1.1"
   id="svg1"
   width="184.54301"
   height="243.06357"
   viewBox="0 0 184.54304 243.06358"
   xmlns="http://www.w3.org/2000/svg"
   xmlns:svg="http://www.w3.org/2000/svg">
  <defs
     id="defs1" />
  <g
     id="g1"
     transform="translate(-512.3606,-31.289058)">
    <rect
       style="fill:#ffffff;fill-opacity:1;stroke:#000000;stroke-width:1.448;stroke-linecap:square;stroke-linejoin:bevel;stroke-dasharray:none;stroke-dashoffset:0;stroke-opacity:1"
       id="rect14"
       width="239.50278"
       height="335.8298"
       x="495.02563"
       y="19.371643"
       rx="17.33494"
       ry="14.657856" />
    <text
       xml:space="preserve"
       style="font-style:normal;font-variant:normal;font-weight:normal;font-stretch:normal;font-size:12px;font-family:FreeSans;-inkscape-font-specification:FreeSans;font-variant-ligatures:normal;font-variant-caps:normal;font-variant-numeric:normal;font-variant-east-asian:normal;white-space:pre;inline-size:136.983;display:inline;fill:#000000;fill-opacity:1;stroke:#000000;stroke-width:0.335667;stroke-linecap:square;stroke-linejoin:bevel;stroke-dasharray:none;stroke-dashoffset:0;stroke-opacity:1"
       x="32.194382"
       y="40.746014"
       id="text66"
       transform="matrix(3.5958254,0,0,3.5958254,442.2055,-83.166708)"><tspan
         x="32.194382"
         y="40.746014"
         id="tspan1">Knight</tspan></text>
    <g
       id="g69"
       transform="translate(485.53847,3.1625324)">
      <rect
         style="fill:none;fill-opacity:1;stroke:#97a300;stroke-width:3.32576;stroke-linecap:square;stroke-linejoin:bevel;stroke-dasharray:none;stroke-dashoffset:0;stroke-opacity:1"
         id="rect66"
         width="204.05365"
         height="114.06127"
         x="28.515463"
         y="74.045197"
         rx="17.324856"
         ry="15.772744" />
      <path
         d="m 29.497451,163.87987 v 4.10811 c 0,4.41611 0.103611,5.56261 0.669266,7.374 1.877652,6.01277 7.247513,10.35146 13.517204,10.92134 0.672533,0.0612 40.08529,0.10207 87.583279,0.0902 81.76551,-0.0203 86.41738,-0.0339 87.42976,-0.26213 3.59454,-0.81025 6.56421,-2.55035 8.86975,-5.19316 1.62498,-1.86265 2.64965,-3.77065 3.25775,-6.07193 0.47457,-1.79592 0.57675,-3.08143 0.57675,-7.21502 v -3.75143 H 130.44834 Z"
         style="fill:#ab9441;fill-opacity:1;stroke:#ab9441;stroke-width:0.421799;stroke-linecap:square;stroke-opacity:1"
         id="path82" />
      <path
         style="fill:#c1c1c1;fill-opacity:1;stroke:#c1c1c1;stroke-width:1.2374;stroke-linecap:square;stroke-linejoin:miter;stroke-dasharray:none;stroke-dashoffset:0;stroke-opacity:1"
         d="m 30.773339,124.92115 0.103031,-38.745271 1.120027,-2.04858 c 1.300403,-2.378449 4.033063,-5.102433 6.288318,-6.268345 4.029577,-2.083167 -0.939836,-1.976307 91.896405,-1.976307 56.11163,0 86.62613,0.135785 87.95608,0.391401 4.67163,0.897762 8.54417,3.721605 10.74509,7.835046 l 1.31372,2.455205 0.10299,38.551081 0.10314,38.55095 H 130.53621 30.670293 Z"
         id="path69" />
      <path
         style="fill:none;fill-rule:evenodd;stroke:#bc9c00;stroke-opacity:1"
         id="path83"
         d="m 47.855251,148.5876 c 0.459142,0.11849 0.0668,0.67737 -0.196935,0.76312 -0.714718,0.23239 -1.293692,-0.51717 -1.329313,-1.15699 -0.06372,-1.14448 1.053353,-1.94175 2.117053,-1.8955 1.561023,0.0679 2.602553,1.59447 2.461691,3.07711 -0.187746,1.97613 -2.137034,3.2684 -4.03717,3.02788 -2.391128,-0.30267 -3.936781,-2.68021 -3.59407,-4.99723 0.41507,-2.80622 3.223726,-4.60661 5.957289,-4.16026 3.221409,0.52601 5.27735,3.76744 4.726447,6.91735 -0.636039,3.63669 -4.311293,5.9487 -7.877406,5.29264 -4.052044,-0.74546 -6.620465,-4.85525 -5.858826,-8.83747 0.854445,-4.46745 5.399262,-7.29254 9.797524,-6.42501 4.882905,0.96312 7.964855,5.94333 6.991204,10.75758"
         transform="translate(-484.23474,-3.1625324)" />
      <path
         style="fill:none;fill-rule:evenodd;stroke:#bc9c00;stroke-opacity:1"
         id="path84"
         d="m 47.855251,148.5876 c 0.459142,0.11849 0.0668,0.67737 -0.196935,0.76312 -0.714718,0.23239 -1.293692,-0.51717 -1.329313,-1.15699 -0.06372,-1.14448 1.053353,-1.94175 2.117053,-1.8955 1.561023,0.0679 2.602553,1.59447 2.461691,3.07711 -0.187746,1.97613 -2.137034,3.2684 -4.03717,3.02788 -2.391128,-0.30267 -3.936781,-2.68021 -3.59407,-4.99723 0.41507,-2.80622 3.223726,-4.60661 5.957289,-4.16026 3.221409,0.52601 5.27735,3.76744 4.726447,6.91735 -0.636039,3.63669 -4.311293,5.9487 -7.877406,5.29264 -4.052044,-0.74546 -6.620465,-4.85525 -5.858826,-8.83747 0.854445,-4.46745 5.399262,-7.29254 9.797524,-6.42501 4.882905,0.96312 7.964855,5.94333 6.991204,10.75758"
         transform="rotate(53.054559,-117.49345,-189.98147)" />
      <path
         style="fill:none;fill-rule:evenodd;stroke:#bc9c00;stroke-opacity:1"
         id="path86"
         d="m 47.855251,148.5876 c 0.459142,0.11849 0.0668,0.67737 -0.196935,0.76312 -0.714718,0.23239 -1.293692,-0.51717 -1.329313,-1.15699 -0.06372,-1.14448 1.053353,-1.94175 2.117053,-1.8955 1.561023,0.0679 2.602553,1.59447 2.461691,3.07711 -0.187746,1.97613 -2.137034,3.2684 -4.03717,3.02788 -2.391128,-0.30267 -3.936781,-2.68021 -3.59407,-4.99723 0.41507,-2.80622 3.223726,-4.60661 5.957289,-4.16026 3.221409,0.52601 5.27735,3.76744 4.726447,6.91735 -0.636039,3.63669 -4.311293,5.9487 -7.877406,5.29264 -4.052044,-0.74546 -6.620465,-4.85525 -5.858826,-8.83747 0.854445,-4.46745 5.399262,-7.29254 9.797524,-6.42501 4.882905,0.96312 7.964855,5.94333 6.991204,10.75758"
         transform="rotate(114.36168,-137.40108,29.552196)" />
      <path
         style="fill:none;fill-rule:evenodd;stroke:#bc9c00;stroke-opacity:1"
         id="path87"
         d="m 47.855251,148.5876 c 0.459142,0.11849 0.0668,0.67737 -0.196935,0.76312 -0.714718,0.23239 -1.293692,-0.51717 -1.329313,-1.15699 -0.06372,-1.14448 1.053353,-1.94175 2.117053,-1.8955 1.561023,0.0679 2.602553,1.59447 2.461691,3.07711 -0.187746,1.97613 -2.137034,3.2684 -4.03717,3.02788 -2.391128,-0.30267 -3.936781,-2.68021 -3.59407,-4.99723 0.41507,-2.80622 3.223726,-4.60661 5.957289,-4.16026 3.221409,0.52601 5.27735,3.76744 4.726447,6.91735 -0.636039,3.63669 -4.311293,5.9487 -7.877406,5.29264 -4.052044,-0.74546 -6.620465,-4.85525 -5.858826,-8.83747 0.854445,-4.46745 5.399262,-7.29254 9.797524,-6.42501 4.882905,0.96312 7.964855,5.94333 6.991204,10.75758"
         transform="rotate(95.656379,-179.70964,-57.625966)" />
    </g>
    <text
       xml:space="preserve"
       style="font-size:23.3205px;font-family:FreeSans;-inkscape-font-specification:FreeSans;fill:#000000;fill-opacity:1;stroke:#000000;stroke-width:1.043;stroke-linecap:square;stroke-dasharray:none;stroke-opacity:1"
       x="570.60699"
       y="229.42125"
       id="text69"><tspan
         id="tspan69"
         x="570.60699"
         y="229.42125"
         style="fill:#000000;fill-opacity:1;stroke-width:1.043;stroke-dasharray:none">Weapons</tspan></text>
    <g
       id="g79"
       transform="translate(486.11178,3.1625324)">
      <path
         style="fill:#ffffff;fill-opacity:0;stroke:#000000;stroke-width:2.107;stroke-linecap:square;stroke-linejoin:miter;stroke-dasharray:none;stroke-dashoffset:0;stroke-opacity:1"
         d="m 120.41328,162.84114 10.09914,-10.09914 10.63697,10.63697"
         id="path72" />
      <path
         style="fill:#ffffff;fill-opacity:1;stroke:#000000;stroke-width:2.30921;stroke-linecap:square;stroke-linejoin:miter;stroke-dasharray:none;stroke-dashoffset:0;stroke-opacity:1"
         d="m 130.54229,121.56989 v 30.72117"
         id="path73" />
    </g>
    <text
       xml:space="preserve"
       style="font-size:16.9805px;font-family:FreeSans;-inkscape-font-specification:FreeSans;fill:#000000;fill-opacity:1;stroke:#000000;stroke-width:0.266167;stroke-linecap:square;stroke-dasharray:none;stroke-opacity:1"
       x="511.13525"
       y="249.29218"
       id="text79"><tspan
         x="511.13525"
         y="249.29218"
         id="tspan79"
         style="stroke-width:0.266167;stroke-dasharray:none">Royal Sword</tspan><tspan
         x="511.13525"
         y="270.51779"
         style="stroke-width:0.266167;stroke-dasharray:none"
         id="tspan119">Royal Shield</tspan></text>
    <text
       xml:space="preserve"
       style="font-style:italic;font-variant:normal;font-weight:normal;font-stretch:normal;font-size:7.42918px;font-family:FreeSans;-inkscape-font-specification:FreeSans;font-variant-ligatures:normal;font-variant-caps:normal;font-variant-numeric:normal;font-variant-east-asian:normal;fill:#4a4a4a;fill-opacity:1;stroke:#4a4a4a;stroke-width:0.190682;stroke-linecap:square;stroke-dasharray:none;stroke-opacity:1"
       x="586.16907"
       y="202.80544"
       id="text80"><tspan
         id="tspan80"
         x="586.16907"
         y="202.80544"
         style="font-style:italic;font-variant:normal;font-weight:normal;font-stretch:normal;font-size:7.42918px;font-family:FreeSans;-inkscape-font-specification:FreeSans;font-variant-ligatures:normal;font-variant-caps:normal;font-variant-numeric:normal;font-variant-east-asian:normal;fill:#4a4a4a;fill-opacity:1;stroke:#4a4a4a;stroke-width:0.190682;stroke-opacity:1">God save the King!</tspan></text>
    <path
       style="fill:#8b8b8b;fill-opacity:0.0071599;stroke:#000000;stroke-width:2.4386;stroke-linecap:square;stroke-linejoin:miter;stroke-dasharray:none;stroke-dashoffset:0;stroke-opacity:1"
       d="m 605.7669,144.37238 10.9964,-7.23901 10.8259,7.12678"
       id="path96" />
    <rect
       style="fill:#cfcfcf;fill-opacity:1;stroke:#000000;stroke-width:0.5;stroke-linecap:square;stroke-dasharray:none;stroke-opacity:1"
       id="rect98"
       width="11.22532"
       height="7.9549513"
       x="436.42093"
       y="440.81729"
       transform="rotate(-32.180297)" />
    <rect
       style="fill:#cfcfcf;fill-opacity:1;stroke:#000000;stroke-width:0.5;stroke-linecap:square;stroke-dasharray:none;stroke-opacity:1"
       id="rect100"
       width="11.22532"
       height="7.9549513"
       x="-608.03784"
       y="-216.41199"
       transform="matrix(-0.84637636,-0.53258525,-0.53258525,0.84637636,0,0)" />
    <rect
       style="fill:#cfcfcf;fill-opacity:1;stroke:#000000;stroke-width:0.579355;stroke-linecap:square;stroke-dasharray:none;stroke-opacity:1"
       id="rect99"
       width="10.984894"
       height="26.589182"
       x="611.23792"
       y="126.65601" />
    <path
       d="m 602.5293,141.21484 c -1.24619,-0.1508 -2.81073,0.99187 -3.03711,2.22657 2.72071,0.65674 3.94336,6.07812 3.94336,6.07812 l 3.6621,-2.85156 c 0,0 -4.90175,-2.55889 -4.56835,-5.45313 z"
       style="fill:#9e6e00;stroke:#000000;stroke-width:0.5;stroke-linecap:square"
       id="path68" />
    <rect
       style="fill:#9e6e00;fill-opacity:1;stroke:#000000;stroke-width:0.5;stroke-linecap:square;stroke-dasharray:none;stroke-opacity:1"
       id="rect97"
       width="7.4246211"
       height="2.9610097"
       x="412.73108"
       y="453.51984"
       transform="rotate(-34.297692)" />
    <path
       style="fill:#cfcfcf;fill-opacity:1;stroke:#000000;stroke-width:0.5;stroke-linecap:square;stroke-dasharray:none;stroke-opacity:1"
       d="m 597.79688,140.89062 -8.79511,-13.15624 0.64517,-2.4078 2.5258,0.67679 8.74914,12.77788 z"
       id="path98" />
    <path
       style="fill:#a97537;fill-opacity:1;stroke:#000000;stroke-width:0.722096;stroke-linecap:square;stroke-dasharray:none;stroke-opacity:1"
       d="m 626.20843,137.62566 c 0.24062,-0.29745 0.33825,1.04801 0.74071,1.3343 0.20148,0.14333 0.77809,0.26007 1.03958,0.37132 0.3606,0.15353 1.56456,0.66946 1.99588,0.66221 0.0641,-9.6e-4 0.12794,-0.0279 0.19219,-0.0332 0.015,-10e-4 0.0267,0.009 0.04,0.0143 0.10401,0.003 0.2076,0.0235 0.31218,0.01 0.0717,-0.009 0.13709,-0.0627 0.20831,-0.0783 0.17274,-0.0383 0.25783,0.006 0.4244,-0.0521 0.10914,-0.038 0.2121,-0.0994 0.32057,-0.14019 0.13419,-0.0504 0.21736,-0.0962 0.33673,-0.1854 0.008,-0.007 0.10882,-0.10932 0.11221,-0.0617 0.002,0.031 -0.0274,0.0591 -0.0322,0.0903 -0.01,0.0792 -0.003,0.28841 0.007,0.35908 0.0353,0.24159 0.0404,0.0155 0.11156,0.19259 0.0202,0.0506 0.0112,0.11354 0.0316,0.16401 0.0316,0.0786 0.36474,0.27539 0.41526,0.35209 0.0229,0.0346 0.0266,0.0825 0.0477,0.11888 0.0499,0.0861 0.17197,0.0308 0.23172,0.1086 0.49817,0.64931 0.41333,0.70781 1.1614,0.975 0.24913,0.089 0.50233,0.20819 0.75969,0.27134 0.53308,0.13093 1.12697,0.12323 1.63354,-0.1556 0.2172,-0.11956 0.39082,-0.25718 0.59347,-0.39932 0.008,-0.006 0.15455,-0.127 0.16829,-0.0926 0.0378,0.0944 -0.20835,0.79439 -0.24277,0.93211 -0.0163,0.0637 -0.008,0.13136 -0.0247,0.19497 -0.0584,0.22396 -0.13687,0.28214 -0.13756,0.51121 -10e-4,0.44793 0.11393,0.0882 -0.0173,0.55409 -0.0625,0.22136 -0.22921,0.49251 -0.25818,0.72284 -0.0633,0.50251 0.12381,-0.10463 -0.0253,0.44941 -0.12046,0.4479 -0.32969,0.87223 -0.50786,1.29587 -0.14805,0.35176 -0.22924,0.73726 -0.38727,1.08427 -0.64377,1.41438 -1.48045,2.56056 -2.64333,3.4877 -0.0702,0.0561 -0.12826,0.13076 -0.20058,0.18307 -0.14969,0.1079 -0.30582,0.20467 -0.46508,0.29234 -0.28718,0.15812 -0.24178,0.0605 -0.52893,0.21862 -0.39117,0.21534 -0.10516,0.11257 -0.35287,0.23056 -0.18017,0.13457 -0.39214,0.15949 -0.58503,0.24951 -0.18993,0.0886 -0.36848,0.22929 -0.56121,0.30895 -0.20867,0.0862 0.0337,-0.0912 -0.2483,0.0641 -0.0295,0.0164 -0.0482,0.0508 -0.0722,0.0761 -0.0694,0.026 -0.13843,0.0541 -0.20833,0.0783 -0.16415,0.0574 -0.31743,0.0262 -0.48052,0.0831 -0.0594,0.0207 -0.10945,0.0704 -0.16827,0.0926 -0.0131,0.004 -0.0253,-0.0175 -0.04,-0.0143 -0.54364,0.094 -0.63975,0.0771 -1.09641,-0.0859 -0.16047,-0.0834 -0.41128,-0.05 -0.57599,-0.15433 -0.20069,-0.12722 -0.32764,-0.38551 -0.47068,-0.57564 -0.20484,-0.27225 -0.39945,-0.5585 -0.60605,-0.82775 -0.0797,-0.10359 -0.1806,-0.1867 -0.25533,-0.29495 -0.0355,-0.0513 -0.0428,-0.12202 -0.0715,-0.17829 -0.27543,-0.53893 -0.4776,-1.03376 -0.68389,-1.61965 -0.1885,-0.53539 -0.41664,-1.05894 -0.54781,-1.62199 -0.0689,-0.29616 -0.0743,-0.61204 -0.12551,-0.91084 -0.0894,-0.52109 -0.0959,-0.0339 -0.12624,-0.65637 -0.0633,-1.3 0.1591,-2.49085 0.26672,-3.77621 0.007,-0.0851 -0.0126,-0.16976 7.6e-4,-0.25443 0.0223,-0.14235 0.0741,-0.27978 0.10526,-0.42088 0.0171,-0.0797 0.0271,-0.16011 0.0407,-0.24014 0.0379,-0.19024 0.0702,-0.38142 0.11367,-0.57068 0.0653,-0.28469 0.20796,-0.58224 0.30659,-0.85838 0.0484,-0.13546 0.0803,-0.27851 0.14522,-0.40658 0.10329,-0.20419 0.23645,-0.39772 0.34579,-0.58967 0.0339,-0.0587 0.0492,-0.16164 0.0807,-0.22588 0.13599,-0.27934 0.24109,-0.45352 0.45811,-0.65144 z"
       id="path100" />
    <path
       style="fill:#818181;fill-opacity:1;stroke:#000000;stroke-width:0.746291;stroke-linecap:square;stroke-dasharray:none;stroke-opacity:1"
       id="path102"
       d="m 645.69459,-74.543938 a 3.64448,3.64448 0 0 1 -3.64029,3.644478 3.64448,3.64448 0 0 1 -3.64866,-3.636101 3.64448,3.64448 0 0 1 3.63191,-3.652835 3.64448,3.64448 0 0 1 3.657,3.627705"
       transform="rotate(19.655094)" />
    <path
       style="fill:#005ae6;fill-opacity:1;stroke:#000000;stroke-width:0.501325;stroke-linecap:square;stroke-dasharray:none;stroke-opacity:1"
       id="path101"
       d="m 644.49849,-74.543938 a 2.4481978,2.4481978 0 0 1 -2.44538,2.448197 2.4481978,2.4481978 0 0 1 -2.45101,-2.44257 2.4481978,2.4481978 0 0 1 2.43975,-2.45381 2.4481978,2.4481978 0 0 1 2.45661,2.436929"
       transform="rotate(19.655094)" />
    <rect
       style="fill:#797979;fill-opacity:1;stroke:#000000;stroke-width:1.4;stroke-linecap:square;stroke-dasharray:none;stroke-opacity:1"
       id="rect102"
       width="31.5"
       height="68.5"
       x="538.5"
       y="98.75" />
    <rect
       style="fill:#797979;fill-opacity:1;stroke:#000000;stroke-width:1.4;stroke-linecap:square;stroke-dasharray:none;stroke-opacity:1"
       id="rect103"
       width="43.575455"
       height="5.7010484"
       x="532.62817"
       y="92.984543" />
    <rect
       style="fill:#797979;fill-opacity:1;stroke:#000000;stroke-width:1.4;stroke-linecap:square;stroke-dasharray:none;stroke-opacity:1"
       id="rect104"
       width="7.4688153"
       height="11.092737"
       x="532.62811"
       y="81.891808" />
    <rect
       style="fill:#797979;fill-opacity:1;stroke:#000000;stroke-width:1.4;stroke-linecap:square;stroke-dasharray:none;stroke-opacity:1"
       id="rect105"
       width="7.4688153"
       height="11.092737"
       x="550.62811"
       y="81.891808" />
    <rect
       style="fill:#797979;fill-opacity:1;stroke:#000000;stroke-width:1.4;stroke-linecap:square;stroke-dasharray:none;stroke-opacity:1"
       id="rect106"
       width="7.4688153"
       height="11.092737"
       x="568.71649"
       y="81.891808" />
    <path
       style="fill:#797979;fill-opacity:1;stroke:#000000;stroke-width:1.4;stroke-linecap:square;stroke-dasharray:none;stroke-opacity:1"
       d="m 554.37171,99.525279 v 6.717511 h -15.20279 v 6.18719 h 15.20279 v 5.48008 h -15.37957 v 7.42462 h 14.67247 v 8.3085 h -14.67247 v 6.18719 h 15.24569 v 5.83363 h -15.06891 v 5.48007 h 14.80819 v 6.01041 h -14.80819 v 4.5962 h 15.32963 v 5.12652"
       id="path107" />
    <path
       style="fill:#797979;fill-opacity:1;stroke:#000000;stroke-width:1.4;stroke-linecap:square;stroke-dasharray:none;stroke-opacity:1"
       d="m 554.10824,99.525279 v 6.717511 h 15.20279 v 6.18719 h -15.20279 v 5.48008 h 15.37957 v 7.42462 h -15.60997 v 8.3085 h 15.60997 v 6.18719 h -15.24569 v 5.83363 h 15.06891 v 5.48007 h -15.43319 v 6.01041 h 15.43319 v 4.5962 H 554.4814 v 5.12652"
       id="path108" />
    <rect
       style="fill:#797979;fill-opacity:1;stroke:#000000;stroke-width:1.4;stroke-linecap:square;stroke-dasharray:none;stroke-opacity:1"
       id="rect114"
       width="31.5"
       height="68.5"
       x="658.5"
       y="98.75" />
    <rect
       style="fill:#797979;fill-opacity:1;stroke:#000000;stroke-width:1.4;stroke-linecap:square;stroke-dasharray:none;stroke-opacity:1"
       id="rect115"
       width="43.575455"
       height="5.7010484"
       x="652.62817"
       y="92.984543" />
    <rect
       style="fill:#797979;fill-opacity:1;stroke:#000000;stroke-width:1.4;stroke-linecap:square;stroke-dasharray:none;stroke-opacity:1"
       id="rect116"
       width="7.4688153"
       height="11.092737"
       x="652.62811"
       y="81.891808" />
    <rect
       style="fill:#797979;fill-opacity:1;stroke:#000000;stroke-width:1.4;stroke-linecap:square;stroke-dasharray:none;stroke-opacity:1"
       id="rect117"
       width="7.4688153"
       height="11.092737"
       x="670.62811"
       y="81.891808" />
    <rect
       style="fill:#797979;fill-opacity:1;stroke:#000000;stroke-width:1.4;stroke-linecap:square;stroke-dasharray:none;stroke-opacity:1"
       id="rect118"
       width="7.4688153"
       height="11.092737"
       x="688.71649"
       y="81.891808" />
    <path
       style="fill:#797979;fill-opacity:1;stroke:#000000;stroke-width:1.4;stroke-linecap:square;stroke-dasharray:none;stroke-opacity:1"
       d="m 674.37171,99.525279 v 6.717511 h -15.20279 v 6.18719 h 15.20279 v 5.48008 h -15.37957 v 7.42462 h 14.67247 v 8.3085 h -14.67247 v 6.18719 h 15.24569 v 5.83363 h -15.06891 v 5.48007 h 14.80819 v 6.01041 h -14.80819 v 4.5962 h 15.32963 v 5.12652"
       id="path118" />
    <path
       style="fill:#797979;fill-opacity:1;stroke:#000000;stroke-width:1.4;stroke-linecap:square;stroke-dasharray:none;stroke-opacity:1"
       d="m 674.10824,99.525279 v 6.717511 h 15.20279 v 6.18719 h -15.20279 v 5.48008 h 15.37957 v 7.42462 h -15.60997 v 8.3085 h 15.60997 v 6.18719 h -15.24569 v 5.83363 h 15.06891 v 5.48007 h -15.43319 v 6.01041 h 15.43319 v 4.5962 H 674.4814 v 5.12652"
       id="path119" />
    <path
       style="fill:#005ae6;fill-opacity:1;stroke:#000000;stroke-width:0.5;stroke-linecap:square;stroke-dasharray:none;stroke-opacity:1"
       id="path85"
       d="m 601.34026,141.23012 a 0.90501475,0.90501475 0 0 1 -0.90398,0.90501 0.90501475,0.90501475 0 0 1 -0.90605,-0.90293 0.90501475,0.90501475 0 0 1 0.90189,-0.90709 0.90501475,0.90501475 0 0 1 0.90813,0.90085" />
    <path
       style="fill:#8a8a8a;fill-opacity:1;stroke:#000000;stroke-width:0.5;stroke-linecap:round;stroke-linejoin:miter;stroke-dasharray:none;stroke-dashoffset:0;stroke-opacity:1"
       d="m 597.09933,124.03642 c -0.21647,4.05637 12.02604,11.37137 19.43934,0 7.29086,11.64454 17.42617,3.86321 17.47333,0 v -19.54108 c 0,-17.057164 -37.07741,-17.057164 -37.07741,0 0,13.16932 0.0602,14.32428 0.16476,19.54108 z"
       id="path70" />
    <path
       style="fill:#8a8a8a;fill-opacity:1;stroke:#000000;stroke-width:0.5;stroke-linecap:butt;stroke-linejoin:miter;stroke-dasharray:none;stroke-dashoffset:0;stroke-opacity:1"
       d="M 634.012,104.49534 H 596.93459"
       id="path71" />
    <path
       style="fill:#8a8a8a;fill-opacity:1;stroke:#000000;stroke-width:0.5;stroke-linecap:butt;stroke-linejoin:miter;stroke-dasharray:none;stroke-dashoffset:0;stroke-opacity:1"
       d="m 601.27034,107.0625 v 17.95789"
       id="path74" />
    <path
       style="fill:#8a8a8a;fill-opacity:1;stroke:#000000;stroke-width:0.5;stroke-linecap:butt;stroke-linejoin:miter;stroke-dasharray:none;stroke-dashoffset:0;stroke-opacity:1"
       d="m 604.67051,107.0625 v 17.95789"
       id="path75" />
    <path
       style="fill:#8a8a8a;fill-opacity:1;stroke:#000000;stroke-width:0.5;stroke-linecap:butt;stroke-linejoin:miter;stroke-dasharray:none;stroke-dashoffset:0;stroke-opacity:1"
       d="m 607.55807,107.0625 v 17.95789"
       id="path76" />
    <path
       style="fill:#8a8a8a;fill-opacity:1;stroke:#000000;stroke-width:0.5;stroke-linecap:butt;stroke-linejoin:miter;stroke-dasharray:none;stroke-dashoffset:0;stroke-opacity:1"
       d="m 610.94824,107.0625 v 17.95789"
       id="path77" />
    <path
       style="fill:#8a8a8a;fill-opacity:1;stroke:#000000;stroke-width:0.5;stroke-linecap:butt;stroke-linejoin:miter;stroke-dasharray:none;stroke-dashoffset:0;stroke-opacity:1"
       d="m 616.4724,107.0625 v 14.375"
       id="path78" />
    <path
       style="fill:#8a8a8a;fill-opacity:1;stroke:#000000;stroke-width:0.5;stroke-linecap:butt;stroke-linejoin:miter;stroke-dasharray:none;stroke-dashoffset:0;stroke-opacity:1"
       d="m 613.83521,107.0625 v 17.95789"
       id="path79" />
    <path
       style="fill:#8a8a8a;fill-opacity:1;stroke:#000000;stroke-width:0.5;stroke-linecap:butt;stroke-linejoin:miter;stroke-dasharray:none;stroke-dashoffset:0;stroke-opacity:1"
       d="m 618.62913,107.0625 v 17.69765"
       id="path80" />
    <path
       style="fill:#8a8a8a;fill-opacity:1;stroke:#000000;stroke-width:0.5;stroke-linecap:butt;stroke-linejoin:miter;stroke-dasharray:none;stroke-dashoffset:0;stroke-opacity:1"
       d="m 621.50267,107.0625 0.0442,17.69765"
       id="path81" />
    <path
       style="fill:#8a8a8a;fill-opacity:1;stroke:#000000;stroke-width:0.5;stroke-linecap:butt;stroke-linejoin:miter;stroke-dasharray:none;stroke-dashoffset:0;stroke-opacity:1"
       d="m 624.90562,107.0625 v 17.69827"
       id="path88" />
    <path
       style="fill:#8a8a8a;fill-opacity:1;stroke:#000000;stroke-width:0.5;stroke-linecap:butt;stroke-linejoin:miter;stroke-dasharray:none;stroke-dashoffset:0;stroke-opacity:1"
       d="m 627.77824,107.0625 v 17.69827"
       id="path89" />
    <path
       style="fill:#8a8a8a;fill-opacity:1;stroke:#000000;stroke-width:0.5;stroke-linecap:butt;stroke-linejoin:miter;stroke-dasharray:none;stroke-dashoffset:0;stroke-opacity:1"
       d="m 631.18119,107.0625 v 17.69827"
       id="path90" />
  </g>
</svg>
