<?xml version="1.0" encoding="UTF-8" standalone="no"?>
<!-- Created with Inkscape (http://www.inkscape.org/) -->

<svg
   version="1.1"
   id="svg1"
   width="240.95078"
   height="337.27783"
   viewBox="0 0 240.95081 337.27784"
   xmlns:xlink="http://www.w3.org/1999/xlink"
   xmlns="http://www.w3.org/2000/svg"
   xmlns:svg="http://www.w3.org/2000/svg">
  <defs
     id="defs1">
    <symbol
       id="Range"
       style="stroke-width:1.5;stroke-dasharray:none">
      <title
         id="title1-4">Range_inkscape_duplicate</title>
      <g
         id="Range_transform"
         transform="matrix(1.534248,0,0,1.534248,9.0976184,-577.8888)">
        <path
           style="fill:#005ae6;fill-opacity:1;stroke:#acacac;stroke-width:1.5;stroke-linecap:square;stroke-dasharray:none;stroke-opacity:1"
           d="m 17.1875,378.0625 18.625,27.0625"
           id="path116" />
        <path
           style="fill:none;fill-opacity:1;stroke:#8f6218;stroke-width:1.5;stroke-linecap:square;stroke-dasharray:none;stroke-opacity:1"
           d="m 36.3125,404.9375 c 0,0 5.120521,-29.09695 -18.8125,-27.3125"
           id="path117" />
      </g>
    </symbol>
  </defs>
  <g
     id="g1"
     transform="translate(-10.301627,-356.64757)">
    <rect
       style="fill:#ffffff;fill-opacity:1;stroke:#000000;stroke-width:1.448;stroke-linecap:square;stroke-linejoin:bevel;stroke-dasharray:none;stroke-dashoffset:0;stroke-opacity:1"
       id="rect21"
       width="239.50278"
       height="335.8298"
       x="11.025627"
       y="357.37158"
       rx="17.33494"
       ry="14.657856" />
    <text
       xml:space="preserve"
       style="font-style:normal;font-variant:normal;font-weight:normal;font-stretch:normal;font-size:12px;font-family:FreeSans;-inkscape-font-specification:FreeSans;font-variant-ligatures:normal;font-variant-caps:normal;font-variant-numeric:normal;font-variant-east-asian:normal;white-space:pre;inline-size:136.983;display:inline;fill:#000000;fill-opacity:1;stroke:#000000;stroke-width:0.335667;stroke-linecap:square;stroke-linejoin:bevel;stroke-dasharray:none;stroke-dashoffset:0;stroke-opacity:1"
       x="32.194382"
       y="40.746014"
       id="text14"
       transform="matrix(3.5958254,0,0,3.5958254,-62.063168,253.67076)"><tspan
         x="32.194382"
         y="40.746014"
         id="tspan1">Revolver</tspan></text>
    <g
       id="g32"
       transform="translate(0,340)"
       style="fill:#aeaeae;fill-opacity:1">
      <rect
         style="fill:#aeaeae;fill-opacity:1;stroke:#97a300;stroke-width:3.32576;stroke-linecap:square;stroke-linejoin:bevel;stroke-dasharray:none;stroke-dashoffset:0;stroke-opacity:1"
         id="rect30"
         width="204.05365"
         height="114.06127"
         x="28.515463"
         y="74.045197"
         rx="17.324856"
         ry="15.772744" />
    </g>
    <text
       xml:space="preserve"
       style="font-size:23.3205px;font-family:FreeSans;-inkscape-font-specification:FreeSans;fill:#000000;fill-opacity:1;stroke:#000000;stroke-width:1.043;stroke-linecap:square;stroke-dasharray:none;stroke-opacity:1"
       x="107.78104"
       y="564.11682"
       id="text32"><tspan
         id="tspan32"
         x="107.78104"
         y="564.11682"
         style="fill:#000000;fill-opacity:1;stroke-width:1.043;stroke-dasharray:none">Stats</tspan></text>
    <text
       xml:space="preserve"
       style="font-size:16.9805px;font-family:FreeSans;-inkscape-font-specification:FreeSans;fill:#000000;fill-opacity:1;stroke:#000000;stroke-width:0.266167;stroke-linecap:square;stroke-dasharray:none;stroke-opacity:1"
       x="25.246489"
       y="583.98779"
       id="text46"><tspan
         x="25.246489"
         y="583.98779"
         id="tspan42"
         style="font-style:normal;font-variant:normal;font-weight:normal;font-stretch:normal;font-size:16.9805px;font-family:FreeSans;-inkscape-font-specification:FreeSans;font-variant-ligatures:normal;font-variant-caps:normal;font-variant-numeric:normal;font-variant-east-asian:normal;stroke-width:0.266167;stroke-dasharray:none">Attack Power: 2</tspan><tspan
         x="25.246489"
         y="605.21344"
         style="font-style:normal;font-variant:normal;font-weight:normal;font-stretch:normal;font-size:16.9805px;font-family:FreeSans;-inkscape-font-specification:FreeSans;font-variant-ligatures:normal;font-variant-caps:normal;font-variant-numeric:normal;font-variant-east-asian:normal;stroke-width:0.266167;stroke-dasharray:none"
         id="tspan53" /></text>
    <text
       xml:space="preserve"
       style="font-style:italic;font-variant:normal;font-weight:normal;font-stretch:normal;font-size:7.42918px;font-family:FreeSans;-inkscape-font-specification:FreeSans;font-variant-ligatures:normal;font-variant-caps:normal;font-variant-numeric:normal;font-variant-east-asian:normal;fill:#4a4a4a;fill-opacity:1;stroke:#4a4a4a;stroke-width:0.190682;stroke-linecap:square;stroke-dasharray:none;stroke-opacity:1"
       x="92.361115"
       y="539.64288"
       id="text48"><tspan
         id="tspan48"
         x="92.361115"
         y="539.64288"
         style="font-style:italic;font-variant:normal;font-weight:normal;font-stretch:normal;font-size:7.42918px;font-family:FreeSans;-inkscape-font-specification:FreeSans;font-variant-ligatures:normal;font-variant-caps:normal;font-variant-numeric:normal;font-variant-east-asian:normal;fill:#4a4a4a;fill-opacity:1;stroke:#4a4a4a;stroke-width:0.190682;stroke-opacity:1">Никогда тебя не брошу</tspan></text>
    <path
       style="fill:#8a8a8a;fill-opacity:1;stroke:#000000;stroke-width:8.077;stroke-linecap:square;stroke-dasharray:none;stroke-opacity:1"
       d="m 80.317005,467.61448 17.266005,39.30566 21.18339,-6.7596 -8.6003,-18.41651 50.60147,-22.95589 -8.66571,-20.88914 z"
       id="path48-0" />
    <text
       xml:space="preserve"
       style="font-size:23.3205px;font-family:FreeSans;-inkscape-font-specification:FreeSans;fill:#000000;fill-opacity:1;stroke:#000000;stroke-width:1.043;stroke-linecap:square;stroke-dasharray:none;stroke-opacity:1"
       x="66.138924"
       y="608.11682"
       id="text55"><tspan
         x="66.138924"
         y="608.11682"
         style="fill:#000000;fill-opacity:1;stroke-width:1.043;stroke-dasharray:none"
         id="tspan56">Specifications</tspan></text>
    <text
       xml:space="preserve"
       style="font-size:16.9805px;font-family:FreeSans;-inkscape-font-specification:FreeSans;white-space:pre;inline-size:210.232;display:inline;fill:#000000;fill-opacity:1;stroke:#000000;stroke-width:0.266167;stroke-linecap:square;stroke-dasharray:none;stroke-opacity:1"
       x="25.246489"
       y="623.98779"
       id="text59"><tspan
         x="25.246489"
         y="623.98779"
         id="tspan2">Reload: 1, 3 after ability
</tspan><tspan
         x="25.246489"
         y="645.21343"
         id="tspan3">Accuracy: &gt;3 from 2 spaces
</tspan><tspan
         x="25.246489"
         y="666.43908"
         id="tspan4">Ability: Deal 6 damage, 3   
</tspan><tspan
         x="25.246489"
         y="687.66473"
         id="tspan5">             turn reload
</tspan><tspan
         x="25.246489"
         y="708.89037"
         id="tspan6">
</tspan><tspan
         x="25.246489"
         y="730.11602"
         id="tspan7">
</tspan></text>
    <use
       xlink:href="#Range"
       id="use33"
       transform="matrix(0.69198126,0,0,0.69198126,193.33842,651.94354)" />
    <path
       style="fill:#232323;fill-opacity:1;stroke:#000000;stroke-width:1.06337;stroke-linecap:square;stroke-opacity:1"
       id="path2"
       d="m 40.673207,487.69162 a 4.6157994,9.658967 0 0 1 -4.610495,9.65896 4.6157994,9.658967 0 0 1 -4.621092,-9.63676 4.6157994,9.658967 0 0 1 4.599874,-9.68111 4.6157994,9.658967 0 0 1 4.631664,9.61451"
       transform="rotate(-12.948384)" />
    <path
       style="fill:#390a0a;stroke:#000000;stroke-width:1.5;stroke-linecap:round;stroke-linejoin:miter;stroke-opacity:1"
       d="m 118.31352,467.81955 23.94133,-10.02166"
       id="path3" />
    <path
       style="fill:#390a0a;stroke:#000000;stroke-width:1.5;stroke-linecap:round;stroke-linejoin:miter;stroke-opacity:1"
       d="m 122.64215,486.64628 23.94133,-10.02166"
       id="path4" />
    <path
       style="fill:#8a8a8a;fill-opacity:1;stroke:none;stroke-width:0.0662913;stroke-linecap:round;stroke-linejoin:miter;stroke-opacity:1"
       d="m 125.95891,478.85492 c -0.01,-0.0547 -0.0517,-0.3878 -0.0925,-0.74025 -0.24318,-2.09963 -0.89928,-4.33927 -1.82296,-6.22279 -0.18244,-0.37202 -0.32259,-0.68554 -0.31144,-0.69669 0.0182,-0.0182 15.10429,-6.8691 15.12619,-6.8691 0.005,0 0.0232,0.27345 0.0404,0.60767 0.11775,2.28592 0.67711,4.685 1.59871,6.85681 0.1147,0.2703 0.20049,0.49903 0.19063,0.50827 -0.0285,0.0268 -14.65275,6.65552 -14.68328,6.65552 -0.0151,0 -0.0357,-0.0448 -0.0458,-0.0994 z"
       id="path48" />
    <g
       id="g40"
       transform="translate(-22.180442,-10.110383)">
      <path
         d="m 154.82497,478.07132 c -0.13266,0.003 -0.26505,0.0145 -0.39648,0.0332 -0.0829,0.004 -0.16564,0.0113 -0.24805,0.0215 l -0.72461,0.30273 -10.97851,4.58594 2.5625,6.13477 10.95703,-4.57618 0.61523,-0.25586 c 0.10751,-0.0761 0.21055,-0.15825 0.3086,-0.24609 0.65809,-0.54045 1.09118,-1.30427 1.21484,-2.14258 0.16746,-1.21152 -0.33039,-2.41666 -1.30469,-3.1582 -0.57613,-0.43904 -1.27864,-0.68393 -2.00586,-0.69922 z"
         style="fill:#fff200;stroke:#000000;stroke-width:1.10518;stroke-linecap:round;stroke-opacity:1"
         id="path62" />
    </g>
    <path
       style="fill:#8a8a8a;fill-opacity:1;stroke:none;stroke-width:0.0662913;stroke-linecap:round;stroke-linejoin:miter;stroke-opacity:1"
       d="m 125.31258,484.68173 c 0,-0.007 0.0776,-0.24959 0.17234,-0.53889 0.38892,-1.18704 0.50312,-2.03094 0.51365,-3.79587 l 0.008,-1.32533 7.3317,-3.32611 c 4.03243,-1.82936 7.35162,-3.32587 7.37598,-3.32558 0.0244,2.9e-4 0.1718,0.25026 0.32764,0.5555 0.78752,1.54238 1.89238,2.88998 2.94864,3.59645 0.17674,0.11821 0.29746,0.22439 0.26825,0.23594 -0.13221,0.0523 -18.59161,7.78184 -18.75829,7.85469 -0.1033,0.0452 -0.18782,0.0763 -0.18782,0.0692 z"
       id="path49" />
    <path
       style="fill:#232323;fill-opacity:1;stroke:#000000;stroke-width:1.06337;stroke-linecap:square;stroke-opacity:1"
       id="path1"
       d="m 15.095068,492.09384 a 4.6157994,9.658967 0 0 1 -4.610495,9.65896 4.6157994,9.658967 0 0 1 -4.6210922,-9.63676 4.6157994,9.658967 0 0 1 4.5998742,-9.68111 4.6157994,9.658967 0 0 1 4.631664,9.61451"
       transform="rotate(-12.948384)" />
  </g>
</svg>
