<?xml version="1.0" encoding="UTF-8" standalone="no"?>
<!-- Created with Inkscape (http://www.inkscape.org/) -->

<svg
   version="1.1"
   id="svg1"
   width="240.95074"
   height="337.27783"
   viewBox="0 0 240.95078 337.27784"
   xmlns:xlink="http://www.w3.org/1999/xlink"
   xmlns="http://www.w3.org/2000/svg"
   xmlns:svg="http://www.w3.org/2000/svg">
  <defs
     id="defs1">
    <symbol
       id="Defense">
      <title
         id="title1-2">Defense_inkscape_duplicate</title>
      <g
         id="Defense_transform"
         transform="matrix(10.847795,0,0,10.847795,-923.31557,-183.56327)">
        <path
           style="fill:#a97537;fill-opacity:1;stroke:#000000;stroke-width:0.191055;stroke-linecap:square;stroke-dasharray:none;stroke-opacity:1"
           d="m 91.872742,17.03948 c 0.06366,-0.0787 0.08949,0.277286 0.195979,0.353034 0.05331,0.03792 0.20587,0.06881 0.275056,0.09825 0.09541,0.04062 0.413956,0.177128 0.528076,0.17521 0.01696,-2.54e-4 0.03385,-0.0074 0.05085,-0.0088 0.004,-2.65e-4 0.0071,0.0024 0.01058,0.0038 0.02752,7.94e-4 0.05493,0.0062 0.0826,0.0026 0.01897,-0.0024 0.03627,-0.01659 0.05512,-0.02072 0.0457,-0.01013 0.06822,0.0016 0.112289,-0.01379 0.02888,-0.01005 0.05612,-0.0263 0.08482,-0.03709 0.0355,-0.01334 0.05751,-0.02545 0.08909,-0.04905 0.0021,-0.0019 0.02879,-0.02893 0.02969,-0.01633 5.29e-4,0.0082 -0.0072,0.01564 -0.0085,0.02389 -0.0026,0.02096 -7.94e-4,0.07631 0.0019,0.09501 0.0093,0.06392 0.01069,0.0041 0.02952,0.05096 0.0053,0.01339 0.003,0.03004 0.0084,0.0434 0.0084,0.0208 0.0965,0.07286 0.109871,0.09316 0.0061,0.0092 0.007,0.02183 0.01262,0.03145 0.0132,0.02278 0.0455,0.0081 0.06131,0.02873 0.131807,0.171797 0.10936,0.187275 0.307287,0.257969 0.06592,0.02355 0.132908,0.05508 0.201001,0.07179 0.141044,0.03464 0.298177,0.03261 0.432207,-0.04117 0.05747,-0.03163 0.103405,-0.06805 0.157023,-0.105654 0.0021,-0.0016 0.04089,-0.0336 0.04453,-0.0245 0.01,0.02498 -0.05513,0.210182 -0.06423,0.246621 -0.0043,0.01685 -0.0021,0.03476 -0.0065,0.05159 -0.01545,0.05926 -0.03621,0.07465 -0.0364,0.135257 -2.64e-4,0.118515 0.03014,0.02334 -0.0046,0.146603 -0.01654,0.05857 -0.06065,0.13031 -0.06831,0.191252 -0.01675,0.132955 0.03276,-0.02768 -0.0067,0.118906 -0.03187,0.118507 -0.08723,0.230778 -0.134371,0.342866 -0.03917,0.09307 -0.06065,0.195066 -0.102466,0.286879 -0.17033,0.374222 -0.391702,0.677482 -0.699381,0.922788 -0.01857,0.01484 -0.03393,0.0346 -0.05307,0.04844 -0.0396,0.02855 -0.08091,0.05415 -0.123052,0.07735 -0.07598,0.04184 -0.06397,0.01601 -0.139946,0.05784 -0.103497,0.05698 -0.02782,0.02979 -0.09336,0.061 -0.04767,0.03561 -0.103753,0.0422 -0.154789,0.06602 -0.05025,0.02344 -0.09749,0.06067 -0.148487,0.08174 -0.05521,0.02281 0.0089,-0.02413 -0.0657,0.01696 -0.0078,0.0043 -0.01275,0.01344 -0.0191,0.02013 -0.01836,0.0069 -0.03663,0.01431 -0.05512,0.02072 -0.04343,0.01519 -0.08399,0.0069 -0.127138,0.02199 -0.01572,0.0055 -0.02896,0.01863 -0.04452,0.0245 -0.0035,0.0011 -0.0067,-0.0046 -0.01058,-0.0038 -0.143838,0.02487 -0.169267,0.0204 -0.290092,-0.02273 -0.04246,-0.02207 -0.108817,-0.01323 -0.152397,-0.04083 -0.0531,-0.03366 -0.08669,-0.101999 -0.124534,-0.152304 -0.0542,-0.07203 -0.105688,-0.14777 -0.160351,-0.219009 -0.02109,-0.02741 -0.04778,-0.0494 -0.06756,-0.07804 -0.0094,-0.01357 -0.01132,-0.03229 -0.01892,-0.04717 -0.07288,-0.142592 -0.126365,-0.273515 -0.180946,-0.428532 -0.04987,-0.141655 -0.110236,-0.280178 -0.144942,-0.429152 -0.01823,-0.07836 -0.01966,-0.161935 -0.03321,-0.240993 -0.02365,-0.137871 -0.02537,-0.009 -0.0334,-0.173664 -0.01675,-0.343959 0.0421,-0.659038 0.07057,-0.999122 0.0019,-0.02252 -0.0033,-0.04492 2.01e-4,-0.06732 0.0059,-0.03766 0.01961,-0.07402 0.02785,-0.111358 0.0045,-0.02109 0.0072,-0.04236 0.01077,-0.06354 0.01003,-0.05034 0.01857,-0.100918 0.03007,-0.150993 0.01728,-0.07532 0.05502,-0.154051 0.08112,-0.227113 0.01281,-0.03584 0.02125,-0.07369 0.03842,-0.107574 0.02733,-0.05402 0.06256,-0.10523 0.09149,-0.156017 0.009,-0.01553 0.01302,-0.04277 0.02135,-0.05976 0.03598,-0.07391 0.06379,-0.119994 0.121209,-0.17236 z"
           id="path100-7" />
        <path
           style="fill:#818181;fill-opacity:1;stroke:#000000;stroke-width:0.197456;stroke-linecap:square;stroke-dasharray:none;stroke-opacity:1"
           id="path102-7"
           d="m 94.812551,-13.141165 a 0.96426868,0.96426868 0 0 1 -0.963161,0.964268 0.96426868,0.96426868 0 0 1 -0.965374,-0.962052 0.96426868,0.96426868 0 0 1 0.960941,-0.966479 0.96426868,0.96426868 0 0 1 0.967583,0.959831"
           transform="rotate(19.655095)" />
        <path
           style="fill:#a9a9a9;fill-opacity:1;stroke:#000000;stroke-width:0.132642;stroke-linecap:square;stroke-dasharray:none;stroke-opacity:1"
           id="path101-4"
           d="m 94.49608,-13.141165 a 0.64775234,0.64775234 0 0 1 -0.647008,0.647752 0.64775234,0.64775234 0 0 1 -0.648495,-0.646263 0.64775234,0.64775234 0 0 1 0.645517,-0.649237 0.64775234,0.64775234 0 0 1 0.649979,0.644771"
           transform="rotate(19.655095)" />
      </g>
    </symbol>
  </defs>
  <g
     id="g1"
     transform="translate(-736.3016,-356.64757)">
    <rect
       style="fill:#ffffff;fill-opacity:1;stroke:#000000;stroke-width:1.448;stroke-linecap:square;stroke-linejoin:bevel;stroke-dasharray:none;stroke-dashoffset:0;stroke-opacity:1"
       id="rect24"
       width="239.50278"
       height="335.8298"
       x="737.02563"
       y="357.37158"
       rx="17.33494"
       ry="14.657856" />
    <text
       xml:space="preserve"
       style="font-style:normal;font-variant:normal;font-weight:normal;font-stretch:normal;font-size:11.4948px;font-family:FreeSans;-inkscape-font-specification:FreeSans;font-variant-ligatures:normal;font-variant-caps:normal;font-variant-numeric:normal;font-variant-east-asian:normal;white-space:pre;inline-size:136.983;display:inline;fill:#000000;fill-opacity:1;stroke:#000000;stroke-width:0.335667;stroke-linecap:square;stroke-linejoin:bevel;stroke-dasharray:none;stroke-dashoffset:0;stroke-opacity:1"
       x="32.194382"
       y="40.746014"
       id="text77"
       transform="matrix(3.5958254,0,0,3.5958254,627.77559,253.67076)"><tspan
         x="32.194382"
         y="40.746014"
         id="tspan1">Royal Shield</tspan></text>
    <g
       id="g77"
       transform="translate(726.23474,340)"
       style="fill:#aeaeae;fill-opacity:1">
      <rect
         style="fill:#aeaeae;fill-opacity:1;stroke:#97a300;stroke-width:3.32576;stroke-linecap:square;stroke-linejoin:bevel;stroke-dasharray:none;stroke-dashoffset:0;stroke-opacity:1"
         id="rect77"
         width="204.05365"
         height="114.06127"
         x="28.515463"
         y="74.045197"
         rx="17.324856"
         ry="15.772744" />
    </g>
    <text
       xml:space="preserve"
       style="font-style:italic;font-variant:normal;font-weight:normal;font-stretch:normal;font-size:7.42918px;font-family:FreeSans;-inkscape-font-specification:FreeSans;font-variant-ligatures:normal;font-variant-caps:normal;font-variant-numeric:normal;font-variant-east-asian:normal;fill:#4a4a4a;fill-opacity:1;stroke:#4a4a4a;stroke-width:0.190682;stroke-linecap:square;stroke-dasharray:none;stroke-opacity:1"
       x="824.8844"
       y="539.64288"
       id="text83"><tspan
         id="tspan83"
         x="824.8844"
         y="539.64288"
         style="font-style:italic;font-variant:normal;font-weight:normal;font-stretch:normal;font-size:7.42918px;font-family:FreeSans;-inkscape-font-specification:FreeSans;font-variant-ligatures:normal;font-variant-caps:normal;font-variant-numeric:normal;font-variant-east-asian:normal;fill:#4a4a4a;fill-opacity:1;stroke:#4a4a4a;stroke-width:0.190682;stroke-opacity:1">Defend His Highness!</tspan></text>
    <text
       xml:space="preserve"
       style="font-size:23.3205px;font-family:FreeSans;-inkscape-font-specification:FreeSans;fill:#000000;fill-opacity:1;stroke:#000000;stroke-width:1.043;stroke-linecap:square;stroke-dasharray:none;stroke-opacity:1"
       x="832.26465"
       y="564.11682"
       id="text78"><tspan
         id="tspan78"
         x="832.26465"
         y="564.11682"
         style="fill:#000000;fill-opacity:1;stroke-width:1.043;stroke-dasharray:none">Stats</tspan></text>
    <text
       xml:space="preserve"
       style="font-size:16.9805px;font-family:FreeSans;-inkscape-font-specification:FreeSans;fill:#000000;fill-opacity:1;stroke:#000000;stroke-width:0.266167;stroke-linecap:square;stroke-dasharray:none;stroke-opacity:1"
       x="749.7301"
       y="583.98779"
       id="text82"><tspan
         x="749.7301"
         y="583.98779"
         id="tspan81"
         style="font-style:normal;font-variant:normal;font-weight:normal;font-stretch:normal;font-size:16.9805px;font-family:FreeSans;-inkscape-font-specification:FreeSans;font-variant-ligatures:normal;font-variant-caps:normal;font-variant-numeric:normal;font-variant-east-asian:normal;stroke-width:0.266167;stroke-dasharray:none">Defence Power: 2</tspan><tspan
         x="749.7301"
         y="605.21344"
         style="font-style:normal;font-variant:normal;font-weight:normal;font-stretch:normal;font-size:16.9805px;font-family:FreeSans;-inkscape-font-specification:FreeSans;font-variant-ligatures:normal;font-variant-caps:normal;font-variant-numeric:normal;font-variant-east-asian:normal;stroke-width:0.266167;stroke-dasharray:none"
         id="tspan82" /></text>
    <use
       xlink:href="#Defense"
       id="use1-4"
       transform="matrix(0.68446418,0,0,0.68446418,896.57905,651.31538)" />
    <g
       id="g2"
       transform="matrix(5.9040101,-1.626614,1.626614,5.9040101,-5118.8921,-680.79779)">
      <path
         style="fill:#a97537;fill-opacity:1;stroke:#000000;stroke-width:0.722096;stroke-linecap:square;stroke-dasharray:none;stroke-opacity:1"
         d="m 887.23557,432.40119 c 0.24062,-0.29745 0.33825,1.04801 0.74071,1.3343 0.20148,0.14333 0.77809,0.26007 1.03958,0.37132 0.3606,0.15353 1.56456,0.66946 1.99588,0.66221 0.0641,-9.6e-4 0.12794,-0.0279 0.19219,-0.0332 0.015,-10e-4 0.0267,0.009 0.04,0.0143 0.10401,0.003 0.2076,0.0235 0.31218,0.01 0.0717,-0.009 0.13709,-0.0627 0.20831,-0.0783 0.17274,-0.0383 0.25783,0.006 0.4244,-0.0521 0.10914,-0.038 0.2121,-0.0994 0.32057,-0.14019 0.13419,-0.0504 0.21736,-0.0962 0.33673,-0.1854 0.008,-0.007 0.10882,-0.10932 0.11221,-0.0617 0.002,0.031 -0.0274,0.0591 -0.0322,0.0903 -0.01,0.0792 -0.003,0.28841 0.007,0.35908 0.0353,0.24159 0.0404,0.0155 0.11156,0.19259 0.0202,0.0506 0.0112,0.11354 0.0316,0.16401 0.0316,0.0786 0.36474,0.27539 0.41526,0.35209 0.0229,0.0346 0.0266,0.0825 0.0477,0.11888 0.0499,0.0861 0.17197,0.0308 0.23172,0.1086 0.49817,0.64931 0.41333,0.70781 1.1614,0.975 0.24913,0.089 0.50233,0.20819 0.75969,0.27134 0.53308,0.13093 1.12697,0.12323 1.63354,-0.1556 0.2172,-0.11956 0.39082,-0.25718 0.59347,-0.39932 0.008,-0.006 0.15455,-0.127 0.16829,-0.0926 0.0378,0.0944 -0.20835,0.79439 -0.24277,0.93211 -0.0163,0.0637 -0.008,0.13136 -0.0247,0.19497 -0.0584,0.22396 -0.13687,0.28214 -0.13756,0.51121 -10e-4,0.44793 0.11393,0.0882 -0.0173,0.55409 -0.0625,0.22136 -0.22921,0.49251 -0.25818,0.72284 -0.0633,0.50251 0.12381,-0.10463 -0.0253,0.44941 -0.12046,0.4479 -0.32969,0.87223 -0.50786,1.29587 -0.14805,0.35176 -0.22924,0.73726 -0.38727,1.08427 -0.64377,1.41438 -1.48045,2.56056 -2.64333,3.4877 -0.0702,0.0561 -0.12826,0.13076 -0.20058,0.18307 -0.14969,0.1079 -0.30582,0.20467 -0.46508,0.29234 -0.28718,0.15812 -0.24178,0.0605 -0.52893,0.21862 -0.39117,0.21534 -0.10516,0.11257 -0.35287,0.23056 -0.18017,0.13457 -0.39214,0.15949 -0.58503,0.24951 -0.18993,0.0886 -0.36848,0.22929 -0.56121,0.30895 -0.20867,0.0862 0.0337,-0.0912 -0.2483,0.0641 -0.0295,0.0164 -0.0482,0.0508 -0.0722,0.0761 -0.0694,0.026 -0.13843,0.0541 -0.20833,0.0783 -0.16415,0.0574 -0.31743,0.0262 -0.48052,0.0831 -0.0594,0.0207 -0.10945,0.0704 -0.16827,0.0926 -0.0131,0.004 -0.0253,-0.0175 -0.04,-0.0143 -0.54364,0.094 -0.63975,0.0771 -1.09641,-0.0859 -0.16047,-0.0834 -0.41128,-0.05 -0.57599,-0.15433 -0.20069,-0.12722 -0.32764,-0.38551 -0.47068,-0.57564 -0.20484,-0.27225 -0.39945,-0.5585 -0.60605,-0.82775 -0.0797,-0.10359 -0.1806,-0.1867 -0.25533,-0.29495 -0.0355,-0.0513 -0.0428,-0.12202 -0.0715,-0.17829 -0.27543,-0.53893 -0.4776,-1.03376 -0.68389,-1.61965 -0.1885,-0.53539 -0.41664,-1.05894 -0.54781,-1.62199 -0.0689,-0.29616 -0.0743,-0.61204 -0.12551,-0.91084 -0.0894,-0.52109 -0.0959,-0.0339 -0.12624,-0.65637 -0.0633,-1.3 0.1591,-2.49085 0.26672,-3.77621 0.007,-0.0851 -0.0126,-0.16976 7.6e-4,-0.25443 0.0223,-0.14235 0.0741,-0.27978 0.10526,-0.42088 0.0171,-0.0797 0.0271,-0.16011 0.0407,-0.24014 0.0379,-0.19024 0.0702,-0.38142 0.11367,-0.57068 0.0653,-0.28469 0.20796,-0.58224 0.30659,-0.85838 0.0484,-0.13546 0.0803,-0.27851 0.14522,-0.40658 0.10329,-0.20419 0.23645,-0.39772 0.34579,-0.58967 0.0339,-0.0587 0.0492,-0.16164 0.0807,-0.22588 0.13599,-0.27934 0.24109,-0.45352 0.45811,-0.65144 z"
         id="path100-8" />
      <path
         style="fill:#bac800;fill-opacity:1;stroke:#000000;stroke-width:0.746291;stroke-linecap:square;stroke-dasharray:none;stroke-opacity:1"
         id="path102-9"
         d="m 990.66273,115.25796 a 3.64448,3.64448 0 0 1 -3.64029,3.64448 3.64448,3.64448 0 0 1 -3.64866,-3.63611 3.64448,3.64448 0 0 1 3.6319,-3.65283 3.64448,3.64448 0 0 1 3.65701,3.6277"
         transform="rotate(19.655094)" />
      <path
         style="fill:#005ae6;fill-opacity:1;stroke:#000000;stroke-width:0.501325;stroke-linecap:square;stroke-dasharray:none;stroke-opacity:1"
         id="path101-0"
         d="m 989.46663,115.25796 a 2.4481978,2.4481978 0 0 1 -2.44538,2.44819 2.4481978,2.4481978 0 0 1 -2.45101,-2.44257 2.4481978,2.4481978 0 0 1 2.43975,-2.45381 2.4481978,2.4481978 0 0 1 2.45661,2.43693"
         transform="rotate(19.655094)" />
    </g>
  </g>
</svg>
